G04 #@! TF.FileFunction,Copper,L1,Top,Signal*
%FSLAX46Y46*%
G04 Gerber Fmt 4.6, Leading zero omitted, Abs format (unit mm)*
G04 Created by KiCad (PCBNEW 4.0.2-stable) date 8/23/2016 9:47:52 AM*
%MOMM*%
G01*
G04 APERTURE LIST*
%ADD10C,0.100000*%
%ADD11C,0.250000*%
%ADD12R,2.032000X1.727200*%
%ADD13O,2.032000X1.727200*%
%ADD14R,1.500000X1.300000*%
%ADD15R,2.500000X1.100000*%
%ADD16O,2.500000X1.100000*%
%ADD17O,1.100000X2.400000*%
%ADD18R,1.524000X1.524000*%
%ADD19C,1.524000*%
%ADD20R,2.000000X2.000000*%
%ADD21C,2.000000*%
%ADD22R,2.032000X2.032000*%
%ADD23O,2.032000X2.032000*%
%ADD24C,1.500000*%
%ADD25C,0.500000*%
G04 APERTURE END LIST*
D10*
D11*
X147343905Y-108640571D02*
X147677239Y-108640571D01*
X147820096Y-109164381D02*
X147343905Y-109164381D01*
X147343905Y-108164381D01*
X147820096Y-108164381D01*
X148248667Y-109164381D02*
X148248667Y-108164381D01*
X148820096Y-109164381D01*
X148820096Y-108164381D01*
X133358096Y-108640571D02*
X133024762Y-108640571D01*
X133024762Y-109164381D02*
X133024762Y-108164381D01*
X133500953Y-108164381D01*
X134358096Y-109164381D02*
X133881905Y-109164381D01*
X133881905Y-108164381D01*
X134643810Y-109116762D02*
X134786667Y-109164381D01*
X135024763Y-109164381D01*
X135120001Y-109116762D01*
X135167620Y-109069143D01*
X135215239Y-108973905D01*
X135215239Y-108878667D01*
X135167620Y-108783429D01*
X135120001Y-108735810D01*
X135024763Y-108688190D01*
X134834286Y-108640571D01*
X134739048Y-108592952D01*
X134691429Y-108545333D01*
X134643810Y-108450095D01*
X134643810Y-108354857D01*
X134691429Y-108259619D01*
X134739048Y-108212000D01*
X134834286Y-108164381D01*
X135072382Y-108164381D01*
X135215239Y-108212000D01*
X135643810Y-109164381D02*
X135643810Y-108164381D01*
X135643810Y-108640571D02*
X136215239Y-108640571D01*
X136215239Y-109164381D02*
X136215239Y-108164381D01*
X121626381Y-109164381D02*
X121293047Y-108688190D01*
X121054952Y-109164381D02*
X121054952Y-108164381D01*
X121435905Y-108164381D01*
X121531143Y-108212000D01*
X121578762Y-108259619D01*
X121626381Y-108354857D01*
X121626381Y-108497714D01*
X121578762Y-108592952D01*
X121531143Y-108640571D01*
X121435905Y-108688190D01*
X121054952Y-108688190D01*
X122007333Y-109116762D02*
X122150190Y-109164381D01*
X122388286Y-109164381D01*
X122483524Y-109116762D01*
X122531143Y-109069143D01*
X122578762Y-108973905D01*
X122578762Y-108878667D01*
X122531143Y-108783429D01*
X122483524Y-108735810D01*
X122388286Y-108688190D01*
X122197809Y-108640571D01*
X122102571Y-108592952D01*
X122054952Y-108545333D01*
X122007333Y-108450095D01*
X122007333Y-108354857D01*
X122054952Y-108259619D01*
X122102571Y-108212000D01*
X122197809Y-108164381D01*
X122435905Y-108164381D01*
X122578762Y-108212000D01*
X122864476Y-108164381D02*
X123435905Y-108164381D01*
X123150190Y-109164381D02*
X123150190Y-108164381D01*
X154939905Y-93734000D02*
X154844667Y-93686381D01*
X154701810Y-93686381D01*
X154558952Y-93734000D01*
X154463714Y-93829238D01*
X154416095Y-93924476D01*
X154368476Y-94114952D01*
X154368476Y-94257810D01*
X154416095Y-94448286D01*
X154463714Y-94543524D01*
X154558952Y-94638762D01*
X154701810Y-94686381D01*
X154797048Y-94686381D01*
X154939905Y-94638762D01*
X154987524Y-94591143D01*
X154987524Y-94257810D01*
X154797048Y-94257810D01*
X155416095Y-94686381D02*
X155416095Y-93686381D01*
X155654190Y-93686381D01*
X155797048Y-93734000D01*
X155892286Y-93829238D01*
X155939905Y-93924476D01*
X155987524Y-94114952D01*
X155987524Y-94257810D01*
X155939905Y-94448286D01*
X155892286Y-94543524D01*
X155797048Y-94638762D01*
X155654190Y-94686381D01*
X155416095Y-94686381D01*
X154320857Y-91146381D02*
X154939905Y-91146381D01*
X154606571Y-91527333D01*
X154749429Y-91527333D01*
X154844667Y-91574952D01*
X154892286Y-91622571D01*
X154939905Y-91717810D01*
X154939905Y-91955905D01*
X154892286Y-92051143D01*
X154844667Y-92098762D01*
X154749429Y-92146381D01*
X154463714Y-92146381D01*
X154368476Y-92098762D01*
X154320857Y-92051143D01*
X155225619Y-91146381D02*
X155558952Y-92146381D01*
X155892286Y-91146381D01*
X154987524Y-86717143D02*
X154939905Y-86764762D01*
X154797048Y-86812381D01*
X154701810Y-86812381D01*
X154558952Y-86764762D01*
X154463714Y-86669524D01*
X154416095Y-86574286D01*
X154368476Y-86383810D01*
X154368476Y-86240952D01*
X154416095Y-86050476D01*
X154463714Y-85955238D01*
X154558952Y-85860000D01*
X154701810Y-85812381D01*
X154797048Y-85812381D01*
X154939905Y-85860000D01*
X154987524Y-85907619D01*
X155368476Y-86764762D02*
X155511333Y-86812381D01*
X155749429Y-86812381D01*
X155844667Y-86764762D01*
X155892286Y-86717143D01*
X155939905Y-86621905D01*
X155939905Y-86526667D01*
X155892286Y-86431429D01*
X155844667Y-86383810D01*
X155749429Y-86336190D01*
X155558952Y-86288571D01*
X155463714Y-86240952D01*
X155416095Y-86193333D01*
X155368476Y-86098095D01*
X155368476Y-86002857D01*
X155416095Y-85907619D01*
X155463714Y-85860000D01*
X155558952Y-85812381D01*
X155797048Y-85812381D01*
X155939905Y-85860000D01*
X154368476Y-84224762D02*
X154511333Y-84272381D01*
X154749429Y-84272381D01*
X154844667Y-84224762D01*
X154892286Y-84177143D01*
X154939905Y-84081905D01*
X154939905Y-83986667D01*
X154892286Y-83891429D01*
X154844667Y-83843810D01*
X154749429Y-83796190D01*
X154558952Y-83748571D01*
X154463714Y-83700952D01*
X154416095Y-83653333D01*
X154368476Y-83558095D01*
X154368476Y-83462857D01*
X154416095Y-83367619D01*
X154463714Y-83320000D01*
X154558952Y-83272381D01*
X154797048Y-83272381D01*
X154939905Y-83320000D01*
X155558952Y-83272381D02*
X155749429Y-83272381D01*
X155844667Y-83320000D01*
X155939905Y-83415238D01*
X155987524Y-83605714D01*
X155987524Y-83939048D01*
X155939905Y-84129524D01*
X155844667Y-84224762D01*
X155749429Y-84272381D01*
X155558952Y-84272381D01*
X155463714Y-84224762D01*
X155368476Y-84129524D01*
X155320857Y-83939048D01*
X155320857Y-83605714D01*
X155368476Y-83415238D01*
X155463714Y-83320000D01*
X155558952Y-83272381D01*
X154368476Y-81684762D02*
X154511333Y-81732381D01*
X154749429Y-81732381D01*
X154844667Y-81684762D01*
X154892286Y-81637143D01*
X154939905Y-81541905D01*
X154939905Y-81446667D01*
X154892286Y-81351429D01*
X154844667Y-81303810D01*
X154749429Y-81256190D01*
X154558952Y-81208571D01*
X154463714Y-81160952D01*
X154416095Y-81113333D01*
X154368476Y-81018095D01*
X154368476Y-80922857D01*
X154416095Y-80827619D01*
X154463714Y-80780000D01*
X154558952Y-80732381D01*
X154797048Y-80732381D01*
X154939905Y-80780000D01*
X155368476Y-81732381D02*
X155368476Y-80732381D01*
X154987524Y-79097143D02*
X154939905Y-79144762D01*
X154797048Y-79192381D01*
X154701810Y-79192381D01*
X154558952Y-79144762D01*
X154463714Y-79049524D01*
X154416095Y-78954286D01*
X154368476Y-78763810D01*
X154368476Y-78620952D01*
X154416095Y-78430476D01*
X154463714Y-78335238D01*
X154558952Y-78240000D01*
X154701810Y-78192381D01*
X154797048Y-78192381D01*
X154939905Y-78240000D01*
X154987524Y-78287619D01*
X155892286Y-79192381D02*
X155416095Y-79192381D01*
X155416095Y-78192381D01*
X154939905Y-73160000D02*
X154844667Y-73112381D01*
X154701810Y-73112381D01*
X154558952Y-73160000D01*
X154463714Y-73255238D01*
X154416095Y-73350476D01*
X154368476Y-73540952D01*
X154368476Y-73683810D01*
X154416095Y-73874286D01*
X154463714Y-73969524D01*
X154558952Y-74064762D01*
X154701810Y-74112381D01*
X154797048Y-74112381D01*
X154939905Y-74064762D01*
X154987524Y-74017143D01*
X154987524Y-73683810D01*
X154797048Y-73683810D01*
X155416095Y-74112381D02*
X155416095Y-73112381D01*
X155654190Y-73112381D01*
X155797048Y-73160000D01*
X155892286Y-73255238D01*
X155939905Y-73350476D01*
X155987524Y-73540952D01*
X155987524Y-73683810D01*
X155939905Y-73874286D01*
X155892286Y-73969524D01*
X155797048Y-74064762D01*
X155654190Y-74112381D01*
X155416095Y-74112381D01*
X154987524Y-71572381D02*
X154654190Y-71096190D01*
X154416095Y-71572381D02*
X154416095Y-70572381D01*
X154797048Y-70572381D01*
X154892286Y-70620000D01*
X154939905Y-70667619D01*
X154987524Y-70762857D01*
X154987524Y-70905714D01*
X154939905Y-71000952D01*
X154892286Y-71048571D01*
X154797048Y-71096190D01*
X154416095Y-71096190D01*
X155320857Y-70572381D02*
X155987524Y-71572381D01*
X155987524Y-70572381D02*
X155320857Y-71572381D01*
X154273238Y-68032381D02*
X154844667Y-68032381D01*
X154558952Y-69032381D02*
X154558952Y-68032381D01*
X155082762Y-68032381D02*
X155749429Y-69032381D01*
X155749429Y-68032381D02*
X155082762Y-69032381D01*
X113395333Y-68746667D02*
X113871524Y-68746667D01*
X113300095Y-69032381D02*
X113633428Y-68032381D01*
X113966762Y-69032381D01*
X114300095Y-69032381D02*
X114300095Y-68032381D01*
X114538190Y-68032381D01*
X114681048Y-68080000D01*
X114776286Y-68175238D01*
X114823905Y-68270476D01*
X114871524Y-68460952D01*
X114871524Y-68603810D01*
X114823905Y-68794286D01*
X114776286Y-68889524D01*
X114681048Y-68984762D01*
X114538190Y-69032381D01*
X114300095Y-69032381D01*
X113919143Y-96972381D02*
X113347714Y-96972381D01*
X113633428Y-96972381D02*
X113633428Y-95972381D01*
X113538190Y-96115238D01*
X113442952Y-96210476D01*
X113347714Y-96258095D01*
X114538190Y-95972381D02*
X114633429Y-95972381D01*
X114728667Y-96020000D01*
X114776286Y-96067619D01*
X114823905Y-96162857D01*
X114871524Y-96353333D01*
X114871524Y-96591429D01*
X114823905Y-96781905D01*
X114776286Y-96877143D01*
X114728667Y-96924762D01*
X114633429Y-96972381D01*
X114538190Y-96972381D01*
X114442952Y-96924762D01*
X114395333Y-96877143D01*
X114347714Y-96781905D01*
X114300095Y-96591429D01*
X114300095Y-96353333D01*
X114347714Y-96162857D01*
X114395333Y-96067619D01*
X114442952Y-96020000D01*
X114538190Y-95972381D01*
X114395333Y-94432381D02*
X114585809Y-94432381D01*
X114681048Y-94384762D01*
X114728667Y-94337143D01*
X114823905Y-94194286D01*
X114871524Y-94003810D01*
X114871524Y-93622857D01*
X114823905Y-93527619D01*
X114776286Y-93480000D01*
X114681048Y-93432381D01*
X114490571Y-93432381D01*
X114395333Y-93480000D01*
X114347714Y-93527619D01*
X114300095Y-93622857D01*
X114300095Y-93860952D01*
X114347714Y-93956190D01*
X114395333Y-94003810D01*
X114490571Y-94051429D01*
X114681048Y-94051429D01*
X114776286Y-94003810D01*
X114823905Y-93956190D01*
X114871524Y-93860952D01*
X113919143Y-91892381D02*
X113347714Y-91892381D01*
X113633428Y-91892381D02*
X113633428Y-90892381D01*
X113538190Y-91035238D01*
X113442952Y-91130476D01*
X113347714Y-91178095D01*
X114823905Y-90892381D02*
X114347714Y-90892381D01*
X114300095Y-91368571D01*
X114347714Y-91320952D01*
X114442952Y-91273333D01*
X114681048Y-91273333D01*
X114776286Y-91320952D01*
X114823905Y-91368571D01*
X114871524Y-91463810D01*
X114871524Y-91701905D01*
X114823905Y-91797143D01*
X114776286Y-91844762D01*
X114681048Y-91892381D01*
X114442952Y-91892381D01*
X114347714Y-91844762D01*
X114300095Y-91797143D01*
X114300095Y-88447619D02*
X114347714Y-88400000D01*
X114442952Y-88352381D01*
X114681048Y-88352381D01*
X114776286Y-88400000D01*
X114823905Y-88447619D01*
X114871524Y-88542857D01*
X114871524Y-88638095D01*
X114823905Y-88780952D01*
X114252476Y-89352381D01*
X114871524Y-89352381D01*
X114538190Y-85812381D02*
X114633429Y-85812381D01*
X114728667Y-85860000D01*
X114776286Y-85907619D01*
X114823905Y-86002857D01*
X114871524Y-86193333D01*
X114871524Y-86431429D01*
X114823905Y-86621905D01*
X114776286Y-86717143D01*
X114728667Y-86764762D01*
X114633429Y-86812381D01*
X114538190Y-86812381D01*
X114442952Y-86764762D01*
X114395333Y-86717143D01*
X114347714Y-86621905D01*
X114300095Y-86431429D01*
X114300095Y-86193333D01*
X114347714Y-86002857D01*
X114395333Y-85907619D01*
X114442952Y-85860000D01*
X114538190Y-85812381D01*
X114776286Y-83605714D02*
X114776286Y-84272381D01*
X114538190Y-83224762D02*
X114300095Y-83939048D01*
X114919143Y-83939048D01*
X114823905Y-80732381D02*
X114347714Y-80732381D01*
X114300095Y-81208571D01*
X114347714Y-81160952D01*
X114442952Y-81113333D01*
X114681048Y-81113333D01*
X114776286Y-81160952D01*
X114823905Y-81208571D01*
X114871524Y-81303810D01*
X114871524Y-81541905D01*
X114823905Y-81637143D01*
X114776286Y-81684762D01*
X114681048Y-81732381D01*
X114442952Y-81732381D01*
X114347714Y-81684762D01*
X114300095Y-81637143D01*
X113919143Y-79192381D02*
X113347714Y-79192381D01*
X113633428Y-79192381D02*
X113633428Y-78192381D01*
X113538190Y-78335238D01*
X113442952Y-78430476D01*
X113347714Y-78478095D01*
X114252476Y-78192381D02*
X114871524Y-78192381D01*
X114538190Y-78573333D01*
X114681048Y-78573333D01*
X114776286Y-78620952D01*
X114823905Y-78668571D01*
X114871524Y-78763810D01*
X114871524Y-79001905D01*
X114823905Y-79097143D01*
X114776286Y-79144762D01*
X114681048Y-79192381D01*
X114395333Y-79192381D01*
X114300095Y-79144762D01*
X114252476Y-79097143D01*
X113919143Y-76652381D02*
X113347714Y-76652381D01*
X113633428Y-76652381D02*
X113633428Y-75652381D01*
X113538190Y-75795238D01*
X113442952Y-75890476D01*
X113347714Y-75938095D01*
X114300095Y-75747619D02*
X114347714Y-75700000D01*
X114442952Y-75652381D01*
X114681048Y-75652381D01*
X114776286Y-75700000D01*
X114823905Y-75747619D01*
X114871524Y-75842857D01*
X114871524Y-75938095D01*
X114823905Y-76080952D01*
X114252476Y-76652381D01*
X114871524Y-76652381D01*
X113919143Y-74112381D02*
X113347714Y-74112381D01*
X113633428Y-74112381D02*
X113633428Y-73112381D01*
X113538190Y-73255238D01*
X113442952Y-73350476D01*
X113347714Y-73398095D01*
X114776286Y-73445714D02*
X114776286Y-74112381D01*
X114538190Y-73064762D02*
X114300095Y-73779048D01*
X114919143Y-73779048D01*
X113919143Y-71572381D02*
X113347714Y-71572381D01*
X113633428Y-71572381D02*
X113633428Y-70572381D01*
X113538190Y-70715238D01*
X113442952Y-70810476D01*
X113347714Y-70858095D01*
X114776286Y-70572381D02*
X114585809Y-70572381D01*
X114490571Y-70620000D01*
X114442952Y-70667619D01*
X114347714Y-70810476D01*
X114300095Y-71000952D01*
X114300095Y-71381905D01*
X114347714Y-71477143D01*
X114395333Y-71524762D01*
X114490571Y-71572381D01*
X114681048Y-71572381D01*
X114776286Y-71524762D01*
X114823905Y-71477143D01*
X114871524Y-71381905D01*
X114871524Y-71143810D01*
X114823905Y-71048571D01*
X114776286Y-71000952D01*
X114681048Y-70953333D01*
X114490571Y-70953333D01*
X114395333Y-71000952D01*
X114347714Y-71048571D01*
X114300095Y-71143810D01*
D12*
X152400000Y-78740000D03*
D13*
X152400000Y-81280000D03*
X152400000Y-83820000D03*
X152400000Y-86360000D03*
D12*
X152400000Y-68580000D03*
D13*
X152400000Y-71120000D03*
X152400000Y-73660000D03*
D14*
X124126000Y-98806000D03*
X126826000Y-98806000D03*
D15*
X126935000Y-68580000D03*
D16*
X126935000Y-70580000D03*
X126935000Y-72580000D03*
X126935000Y-74580000D03*
X126935000Y-76580000D03*
X126935000Y-78580000D03*
X126935000Y-80580000D03*
X126935000Y-82580000D03*
D17*
X129625000Y-84330000D03*
X131625000Y-84330000D03*
X133625000Y-84330000D03*
X135625000Y-84330000D03*
X137625000Y-84330000D03*
X139625000Y-84330000D03*
D16*
X142335000Y-82580000D03*
X142235000Y-80580000D03*
X142335000Y-78580000D03*
X142335000Y-76580000D03*
X142335000Y-74580000D03*
X142335000Y-72580000D03*
X142335000Y-70580000D03*
X142335000Y-68580000D03*
D18*
X148082000Y-101854000D03*
D19*
X148082000Y-104354000D03*
X148082000Y-106854000D03*
D20*
X119126000Y-102108000D03*
D21*
X119126000Y-106608000D03*
X125626000Y-106608000D03*
X125626000Y-102108000D03*
D20*
X131318000Y-102108000D03*
D21*
X131318000Y-106608000D03*
X137818000Y-106608000D03*
X137818000Y-102108000D03*
D12*
X116840000Y-68580000D03*
D13*
X116840000Y-71120000D03*
X116840000Y-73660000D03*
X116840000Y-76200000D03*
X116840000Y-78740000D03*
X116840000Y-81280000D03*
X116840000Y-83820000D03*
X116840000Y-86360000D03*
X116840000Y-88900000D03*
X116840000Y-91440000D03*
X116840000Y-93980000D03*
X116840000Y-96520000D03*
D22*
X152400000Y-91694000D03*
D23*
X152400000Y-94234000D03*
D24*
X149352000Y-73660000D03*
X149352000Y-93218000D03*
X134874000Y-98298000D03*
X127063500Y-91503500D03*
X133604000Y-87376000D03*
X127000000Y-93980000D03*
X135636000Y-87376000D03*
X129476500Y-93916500D03*
X124460000Y-88900000D03*
X122047000Y-87058500D03*
X120840500Y-85026500D03*
X122047000Y-82867500D03*
X120650000Y-98806000D03*
X146050000Y-94996000D03*
D25*
X152400000Y-94234000D02*
X150368000Y-94234000D01*
X149352000Y-93218000D02*
X150368000Y-94234000D01*
X152400000Y-94234000D02*
X152400000Y-104140000D01*
X133604000Y-104394000D02*
X144018000Y-104394000D01*
X144018000Y-104394000D02*
X146478000Y-106854000D01*
X146478000Y-106854000D02*
X149686000Y-106854000D01*
X149686000Y-106854000D02*
X152400000Y-104140000D01*
X150622000Y-73660000D02*
X149352000Y-73660000D01*
X150622000Y-73660000D02*
X152400000Y-73660000D01*
X149352000Y-73660000D02*
X149352000Y-75692000D01*
X144750000Y-82580000D02*
X149352000Y-77978000D01*
X149352000Y-77978000D02*
X149352000Y-75692000D01*
X141635000Y-82580000D02*
X144750000Y-82580000D01*
X119126000Y-106608000D02*
X121340000Y-104394000D01*
X121340000Y-104394000D02*
X122682000Y-104394000D01*
X131318000Y-106608000D02*
X133532000Y-104394000D01*
X133532000Y-104394000D02*
X133604000Y-104394000D01*
X122682000Y-104394000D02*
X133604000Y-104394000D01*
X134874000Y-98552000D02*
X131318000Y-102108000D01*
X134874000Y-98298000D02*
X134874000Y-98552000D01*
X127000000Y-91440000D02*
X116840000Y-91440000D01*
X127063500Y-91503500D02*
X127000000Y-91440000D01*
X152400000Y-91694000D02*
X148336000Y-91694000D01*
X148336000Y-91694000D02*
X147320000Y-92710000D01*
X148082000Y-101854000D02*
X148082000Y-94234000D01*
X148082000Y-94234000D02*
X146939000Y-93091000D01*
X126826000Y-98552000D02*
X129032000Y-98552000D01*
X134366000Y-92964000D02*
X134366000Y-93091000D01*
X134493000Y-93091000D02*
X134366000Y-92964000D01*
X129032000Y-98552000D02*
X134493000Y-93091000D01*
X133604000Y-93091000D02*
X134366000Y-93091000D01*
X134366000Y-93091000D02*
X146939000Y-93091000D01*
X146939000Y-93091000D02*
X147320000Y-92710000D01*
X125446000Y-82580000D02*
X127635000Y-82580000D01*
X124460000Y-83566000D02*
X125446000Y-82580000D01*
X124460000Y-85471000D02*
X124460000Y-83566000D01*
X132080000Y-93091000D02*
X124460000Y-85471000D01*
X133604000Y-93091000D02*
X132080000Y-93091000D01*
X127635000Y-70580000D02*
X121380000Y-70580000D01*
X119380000Y-68580000D02*
X116840000Y-68580000D01*
X121380000Y-70580000D02*
X119380000Y-68580000D01*
X127635000Y-74580000D02*
X123094000Y-74580000D01*
X119634000Y-71120000D02*
X116840000Y-71120000D01*
X123094000Y-74580000D02*
X119634000Y-71120000D01*
X116840000Y-73660000D02*
X119634000Y-73660000D01*
X122554000Y-76580000D02*
X127635000Y-76580000D01*
X119634000Y-73660000D02*
X122554000Y-76580000D01*
X116840000Y-73785000D02*
X116840000Y-73660000D01*
X116840000Y-76200000D02*
X119634000Y-76200000D01*
X122014000Y-78580000D02*
X127635000Y-78580000D01*
X119634000Y-76200000D02*
X122014000Y-78580000D01*
X117287000Y-76200000D02*
X116840000Y-76200000D01*
X116840000Y-78740000D02*
X119634000Y-78740000D01*
X121474000Y-80580000D02*
X127635000Y-80580000D01*
X119634000Y-78740000D02*
X121474000Y-80580000D01*
X117795500Y-78740000D02*
X116840000Y-78740000D01*
X116840000Y-93980000D02*
X127000000Y-93980000D01*
X133625000Y-87355000D02*
X133625000Y-84330000D01*
X133604000Y-87376000D02*
X133625000Y-87355000D01*
X133604000Y-84351000D02*
X133625000Y-84330000D01*
X116840000Y-96520000D02*
X126873000Y-96520000D01*
X135625000Y-87365000D02*
X135625000Y-84330000D01*
X135636000Y-87376000D02*
X135625000Y-87365000D01*
X126873000Y-96520000D02*
X129476500Y-93916500D01*
X135636000Y-84341000D02*
X135625000Y-84330000D01*
X124460000Y-88900000D02*
X116840000Y-88900000D01*
X116840000Y-86360000D02*
X119634000Y-86360000D01*
X120332500Y-87058500D02*
X122047000Y-87058500D01*
X119634000Y-86360000D02*
X120332500Y-87058500D01*
X116840000Y-83820000D02*
X119634000Y-83820000D01*
X119634000Y-83820000D02*
X120840500Y-85026500D01*
X116840000Y-81280000D02*
X116903500Y-81343500D01*
X116903500Y-81343500D02*
X120523000Y-81343500D01*
X120523000Y-81343500D02*
X122047000Y-82867500D01*
X152400000Y-78740000D02*
X151130000Y-78740000D01*
X151130000Y-78740000D02*
X150622000Y-79248000D01*
X150622000Y-79248000D02*
X143510000Y-86360000D01*
X140462000Y-86360000D02*
X139625000Y-85523000D01*
X143510000Y-86360000D02*
X140462000Y-86360000D01*
X139625000Y-85523000D02*
X139625000Y-84330000D01*
X139625000Y-84330000D02*
X139625000Y-85015000D01*
X139625000Y-84330000D02*
X139625000Y-84507000D01*
X152400000Y-81280000D02*
X151130000Y-81280000D01*
X151130000Y-81280000D02*
X150114000Y-82296000D01*
X150114000Y-82296000D02*
X144399000Y-88011000D01*
X137625000Y-86571000D02*
X137625000Y-84330000D01*
X139065000Y-88011000D02*
X137625000Y-86571000D01*
X144399000Y-88011000D02*
X139065000Y-88011000D01*
X137625000Y-84330000D02*
X137625000Y-85047000D01*
X137625000Y-84330000D02*
X137625000Y-84793000D01*
X152400000Y-83820000D02*
X151130000Y-83820000D01*
X151130000Y-83820000D02*
X150114000Y-84836000D01*
X150114000Y-84836000D02*
X145415000Y-89535000D01*
X131625000Y-88064000D02*
X131625000Y-84330000D01*
X133096000Y-89535000D02*
X131625000Y-88064000D01*
X145415000Y-89535000D02*
X133096000Y-89535000D01*
X152400000Y-86360000D02*
X151130000Y-86360000D01*
X151130000Y-86360000D02*
X150114000Y-87376000D01*
X150114000Y-87376000D02*
X146177000Y-91313000D01*
X129625000Y-88350000D02*
X129625000Y-84330000D01*
X132588000Y-91313000D02*
X129625000Y-88350000D01*
X146177000Y-91313000D02*
X132588000Y-91313000D01*
X141635000Y-68580000D02*
X152400000Y-68580000D01*
X141635000Y-70580000D02*
X149701000Y-70580000D01*
X150241000Y-71120000D02*
X152400000Y-71120000D01*
X149701000Y-70580000D02*
X150241000Y-71120000D01*
X124126000Y-98806000D02*
X120650000Y-98806000D01*
X119126000Y-100330000D02*
X119126000Y-102108000D01*
X120650000Y-98806000D02*
X119126000Y-100330000D01*
X147026000Y-104354000D02*
X146050000Y-103378000D01*
X146050000Y-103378000D02*
X146050000Y-94996000D01*
X148082000Y-104354000D02*
X147026000Y-104354000D01*
M02*
