M48
;DRILL file {KiCad 4.0.2-stable} date 8/23/2016 9:47:30 AM
;FORMAT={2:4/ absolute / inch / suppress trailing zeros}
FMAT,2
INCH,LZ
T1C0.016
T2C0.026
T3C0.030
T4C0.039
T5C0.040
%
G90
G05
M72
T1
X0475Y-0389
X047575Y-033475
X04805Y-032625
X04805Y-034275
X049Y-035
X05Y-037
X050025Y-036025
X050975Y-036975
X0526Y-0344
X0531Y-0387
X0534Y-0344
X0575Y-0374
X0588Y-029
X0588Y-0367
T2
X05025Y-027
X05025Y-027787
X05025Y-028575
X05025Y-029362
X05025Y-03015
X05025Y-030937
X05025Y-031724
X05025Y-032512
X055762Y-027
X055762Y-027787
X055762Y-028575
X055762Y-029362
X055762Y-03015
X055762Y-030937
X055762Y-031724
X055762Y-032512
T3
X0583Y-0401
X0583Y-041084
X0583Y-042069
T4
X0469Y-0402
X0469Y-041972
X049459Y-0402
X049459Y-041972
X0517Y-0402
X0517Y-041972
X054259Y-0402
X054259Y-041972
T5
X046Y-027
X046Y-028
X046Y-029
X046Y-03
X046Y-031
X046Y-032
X046Y-033
X046Y-034
X046Y-035
X046Y-036
X046Y-037
X046Y-038
X06Y-027
X06Y-028
X06Y-029
X06Y-031
X06Y-032
X06Y-033
X06Y-034
X06Y-0361
X06Y-0371
T0
M30
