M48
;DRILL file {KiCad 4.0.2-stable} date 8/25/2016 6:14:01 PM
;FORMAT={2:4/ absolute / inch / suppress trailing zeros}
FMAT,2
INCH,LZ
T1C0.016
T2C0.020
T3C0.026
T4C0.039
T5C0.040
%
G90
G05
M72
T1
X04775Y-0335
X04825Y-0325
X0485Y-03425
X04925Y-035
X05Y-03575
X05075Y-0365
X0515Y-03725
X053Y-0346
X05375Y-03975
X0538Y-0346
X05475Y-04025
X05875Y-0305
X05875Y-037
T2
X0475Y-039
X0485Y-027
T3
X05025Y-027
X05025Y-027787
X05025Y-028575
X05025Y-029362
X05025Y-03015
X05025Y-030937
X05025Y-031724
X05025Y-032512
X055762Y-027
X055762Y-027787
X055762Y-028575
X055762Y-029362
X055762Y-03015
X055762Y-030937
X055762Y-031724
X055762Y-032512
T4
X0475Y-04025
X0475Y-042022
X050059Y-04025
X050059Y-042022
X056Y-04025
X056Y-042022
X058559Y-04025
X058559Y-042022
T5
X046Y-027
X046Y-028
X046Y-029
X046Y-03
X046Y-031
X046Y-032
X046Y-033
X046Y-034
X046Y-035
X046Y-036
X046Y-037
X046Y-038
X06Y-027
X06Y-028
X06Y-029
X06Y-031
X06Y-032
X06Y-033
X06Y-034
X06Y-036
X06Y-037
T0
M30
