G04 #@! TF.FileFunction,Copper,L1,Top,Signal*
%FSLAX46Y46*%
G04 Gerber Fmt 4.6, Leading zero omitted, Abs format (unit mm)*
G04 Created by KiCad (PCBNEW 4.0.2-stable) date 8/25/2016 6:13:52 PM*
%MOMM*%
G01*
G04 APERTURE LIST*
%ADD10C,0.100000*%
%ADD11C,0.250000*%
%ADD12R,2.000000X2.000000*%
%ADD13C,2.000000*%
%ADD14R,2.032000X1.727200*%
%ADD15O,2.032000X1.727200*%
%ADD16R,1.300000X1.500000*%
%ADD17R,2.500000X1.100000*%
%ADD18O,2.500000X1.100000*%
%ADD19O,1.100000X2.400000*%
%ADD20R,1.500000X1.300000*%
%ADD21R,2.032000X2.032000*%
%ADD22O,2.032000X2.032000*%
%ADD23C,1.500000*%
%ADD24C,0.500000*%
G04 APERTURE END LIST*
D10*
D11*
X144153096Y-108513571D02*
X143819762Y-108513571D01*
X143819762Y-109037381D02*
X143819762Y-108037381D01*
X144295953Y-108037381D01*
X145153096Y-109037381D02*
X144676905Y-109037381D01*
X144676905Y-108037381D01*
X145438810Y-108989762D02*
X145581667Y-109037381D01*
X145819763Y-109037381D01*
X145915001Y-108989762D01*
X145962620Y-108942143D01*
X146010239Y-108846905D01*
X146010239Y-108751667D01*
X145962620Y-108656429D01*
X145915001Y-108608810D01*
X145819763Y-108561190D01*
X145629286Y-108513571D01*
X145534048Y-108465952D01*
X145486429Y-108418333D01*
X145438810Y-108323095D01*
X145438810Y-108227857D01*
X145486429Y-108132619D01*
X145534048Y-108085000D01*
X145629286Y-108037381D01*
X145867382Y-108037381D01*
X146010239Y-108085000D01*
X146438810Y-109037381D02*
X146438810Y-108037381D01*
X146438810Y-108513571D02*
X147010239Y-108513571D01*
X147010239Y-109037381D02*
X147010239Y-108037381D01*
X123277381Y-109037381D02*
X122944047Y-108561190D01*
X122705952Y-109037381D02*
X122705952Y-108037381D01*
X123086905Y-108037381D01*
X123182143Y-108085000D01*
X123229762Y-108132619D01*
X123277381Y-108227857D01*
X123277381Y-108370714D01*
X123229762Y-108465952D01*
X123182143Y-108513571D01*
X123086905Y-108561190D01*
X122705952Y-108561190D01*
X123658333Y-108989762D02*
X123801190Y-109037381D01*
X124039286Y-109037381D01*
X124134524Y-108989762D01*
X124182143Y-108942143D01*
X124229762Y-108846905D01*
X124229762Y-108751667D01*
X124182143Y-108656429D01*
X124134524Y-108608810D01*
X124039286Y-108561190D01*
X123848809Y-108513571D01*
X123753571Y-108465952D01*
X123705952Y-108418333D01*
X123658333Y-108323095D01*
X123658333Y-108227857D01*
X123705952Y-108132619D01*
X123753571Y-108085000D01*
X123848809Y-108037381D01*
X124086905Y-108037381D01*
X124229762Y-108085000D01*
X124515476Y-108037381D02*
X125086905Y-108037381D01*
X124801190Y-109037381D02*
X124801190Y-108037381D01*
X155066905Y-93480000D02*
X154971667Y-93432381D01*
X154828810Y-93432381D01*
X154685952Y-93480000D01*
X154590714Y-93575238D01*
X154543095Y-93670476D01*
X154495476Y-93860952D01*
X154495476Y-94003810D01*
X154543095Y-94194286D01*
X154590714Y-94289524D01*
X154685952Y-94384762D01*
X154828810Y-94432381D01*
X154924048Y-94432381D01*
X155066905Y-94384762D01*
X155114524Y-94337143D01*
X155114524Y-94003810D01*
X154924048Y-94003810D01*
X155543095Y-94432381D02*
X155543095Y-93432381D01*
X155781190Y-93432381D01*
X155924048Y-93480000D01*
X156019286Y-93575238D01*
X156066905Y-93670476D01*
X156114524Y-93860952D01*
X156114524Y-94003810D01*
X156066905Y-94194286D01*
X156019286Y-94289524D01*
X155924048Y-94384762D01*
X155781190Y-94432381D01*
X155543095Y-94432381D01*
X154447857Y-90892381D02*
X155066905Y-90892381D01*
X154733571Y-91273333D01*
X154876429Y-91273333D01*
X154971667Y-91320952D01*
X155019286Y-91368571D01*
X155066905Y-91463810D01*
X155066905Y-91701905D01*
X155019286Y-91797143D01*
X154971667Y-91844762D01*
X154876429Y-91892381D01*
X154590714Y-91892381D01*
X154495476Y-91844762D01*
X154447857Y-91797143D01*
X155352619Y-90892381D02*
X155685952Y-91892381D01*
X156019286Y-90892381D01*
X155114524Y-86717143D02*
X155066905Y-86764762D01*
X154924048Y-86812381D01*
X154828810Y-86812381D01*
X154685952Y-86764762D01*
X154590714Y-86669524D01*
X154543095Y-86574286D01*
X154495476Y-86383810D01*
X154495476Y-86240952D01*
X154543095Y-86050476D01*
X154590714Y-85955238D01*
X154685952Y-85860000D01*
X154828810Y-85812381D01*
X154924048Y-85812381D01*
X155066905Y-85860000D01*
X155114524Y-85907619D01*
X155495476Y-86764762D02*
X155638333Y-86812381D01*
X155876429Y-86812381D01*
X155971667Y-86764762D01*
X156019286Y-86717143D01*
X156066905Y-86621905D01*
X156066905Y-86526667D01*
X156019286Y-86431429D01*
X155971667Y-86383810D01*
X155876429Y-86336190D01*
X155685952Y-86288571D01*
X155590714Y-86240952D01*
X155543095Y-86193333D01*
X155495476Y-86098095D01*
X155495476Y-86002857D01*
X155543095Y-85907619D01*
X155590714Y-85860000D01*
X155685952Y-85812381D01*
X155924048Y-85812381D01*
X156066905Y-85860000D01*
X154495476Y-84224762D02*
X154638333Y-84272381D01*
X154876429Y-84272381D01*
X154971667Y-84224762D01*
X155019286Y-84177143D01*
X155066905Y-84081905D01*
X155066905Y-83986667D01*
X155019286Y-83891429D01*
X154971667Y-83843810D01*
X154876429Y-83796190D01*
X154685952Y-83748571D01*
X154590714Y-83700952D01*
X154543095Y-83653333D01*
X154495476Y-83558095D01*
X154495476Y-83462857D01*
X154543095Y-83367619D01*
X154590714Y-83320000D01*
X154685952Y-83272381D01*
X154924048Y-83272381D01*
X155066905Y-83320000D01*
X155685952Y-83272381D02*
X155876429Y-83272381D01*
X155971667Y-83320000D01*
X156066905Y-83415238D01*
X156114524Y-83605714D01*
X156114524Y-83939048D01*
X156066905Y-84129524D01*
X155971667Y-84224762D01*
X155876429Y-84272381D01*
X155685952Y-84272381D01*
X155590714Y-84224762D01*
X155495476Y-84129524D01*
X155447857Y-83939048D01*
X155447857Y-83605714D01*
X155495476Y-83415238D01*
X155590714Y-83320000D01*
X155685952Y-83272381D01*
X154495476Y-81684762D02*
X154638333Y-81732381D01*
X154876429Y-81732381D01*
X154971667Y-81684762D01*
X155019286Y-81637143D01*
X155066905Y-81541905D01*
X155066905Y-81446667D01*
X155019286Y-81351429D01*
X154971667Y-81303810D01*
X154876429Y-81256190D01*
X154685952Y-81208571D01*
X154590714Y-81160952D01*
X154543095Y-81113333D01*
X154495476Y-81018095D01*
X154495476Y-80922857D01*
X154543095Y-80827619D01*
X154590714Y-80780000D01*
X154685952Y-80732381D01*
X154924048Y-80732381D01*
X155066905Y-80780000D01*
X155495476Y-81732381D02*
X155495476Y-80732381D01*
X155114524Y-79097143D02*
X155066905Y-79144762D01*
X154924048Y-79192381D01*
X154828810Y-79192381D01*
X154685952Y-79144762D01*
X154590714Y-79049524D01*
X154543095Y-78954286D01*
X154495476Y-78763810D01*
X154495476Y-78620952D01*
X154543095Y-78430476D01*
X154590714Y-78335238D01*
X154685952Y-78240000D01*
X154828810Y-78192381D01*
X154924048Y-78192381D01*
X155066905Y-78240000D01*
X155114524Y-78287619D01*
X156019286Y-79192381D02*
X155543095Y-79192381D01*
X155543095Y-78192381D01*
X155066905Y-73160000D02*
X154971667Y-73112381D01*
X154828810Y-73112381D01*
X154685952Y-73160000D01*
X154590714Y-73255238D01*
X154543095Y-73350476D01*
X154495476Y-73540952D01*
X154495476Y-73683810D01*
X154543095Y-73874286D01*
X154590714Y-73969524D01*
X154685952Y-74064762D01*
X154828810Y-74112381D01*
X154924048Y-74112381D01*
X155066905Y-74064762D01*
X155114524Y-74017143D01*
X155114524Y-73683810D01*
X154924048Y-73683810D01*
X155543095Y-74112381D02*
X155543095Y-73112381D01*
X155781190Y-73112381D01*
X155924048Y-73160000D01*
X156019286Y-73255238D01*
X156066905Y-73350476D01*
X156114524Y-73540952D01*
X156114524Y-73683810D01*
X156066905Y-73874286D01*
X156019286Y-73969524D01*
X155924048Y-74064762D01*
X155781190Y-74112381D01*
X155543095Y-74112381D01*
X155114524Y-71572381D02*
X154781190Y-71096190D01*
X154543095Y-71572381D02*
X154543095Y-70572381D01*
X154924048Y-70572381D01*
X155019286Y-70620000D01*
X155066905Y-70667619D01*
X155114524Y-70762857D01*
X155114524Y-70905714D01*
X155066905Y-71000952D01*
X155019286Y-71048571D01*
X154924048Y-71096190D01*
X154543095Y-71096190D01*
X155447857Y-70572381D02*
X156114524Y-71572381D01*
X156114524Y-70572381D02*
X155447857Y-71572381D01*
X154400238Y-68032381D02*
X154971667Y-68032381D01*
X154685952Y-69032381D02*
X154685952Y-68032381D01*
X155209762Y-68032381D02*
X155876429Y-69032381D01*
X155876429Y-68032381D02*
X155209762Y-69032381D01*
X113268333Y-68746667D02*
X113744524Y-68746667D01*
X113173095Y-69032381D02*
X113506428Y-68032381D01*
X113839762Y-69032381D01*
X114173095Y-69032381D02*
X114173095Y-68032381D01*
X114411190Y-68032381D01*
X114554048Y-68080000D01*
X114649286Y-68175238D01*
X114696905Y-68270476D01*
X114744524Y-68460952D01*
X114744524Y-68603810D01*
X114696905Y-68794286D01*
X114649286Y-68889524D01*
X114554048Y-68984762D01*
X114411190Y-69032381D01*
X114173095Y-69032381D01*
X113792143Y-96972381D02*
X113220714Y-96972381D01*
X113506428Y-96972381D02*
X113506428Y-95972381D01*
X113411190Y-96115238D01*
X113315952Y-96210476D01*
X113220714Y-96258095D01*
X114411190Y-95972381D02*
X114506429Y-95972381D01*
X114601667Y-96020000D01*
X114649286Y-96067619D01*
X114696905Y-96162857D01*
X114744524Y-96353333D01*
X114744524Y-96591429D01*
X114696905Y-96781905D01*
X114649286Y-96877143D01*
X114601667Y-96924762D01*
X114506429Y-96972381D01*
X114411190Y-96972381D01*
X114315952Y-96924762D01*
X114268333Y-96877143D01*
X114220714Y-96781905D01*
X114173095Y-96591429D01*
X114173095Y-96353333D01*
X114220714Y-96162857D01*
X114268333Y-96067619D01*
X114315952Y-96020000D01*
X114411190Y-95972381D01*
X114268333Y-94432381D02*
X114458809Y-94432381D01*
X114554048Y-94384762D01*
X114601667Y-94337143D01*
X114696905Y-94194286D01*
X114744524Y-94003810D01*
X114744524Y-93622857D01*
X114696905Y-93527619D01*
X114649286Y-93480000D01*
X114554048Y-93432381D01*
X114363571Y-93432381D01*
X114268333Y-93480000D01*
X114220714Y-93527619D01*
X114173095Y-93622857D01*
X114173095Y-93860952D01*
X114220714Y-93956190D01*
X114268333Y-94003810D01*
X114363571Y-94051429D01*
X114554048Y-94051429D01*
X114649286Y-94003810D01*
X114696905Y-93956190D01*
X114744524Y-93860952D01*
X113792143Y-91892381D02*
X113220714Y-91892381D01*
X113506428Y-91892381D02*
X113506428Y-90892381D01*
X113411190Y-91035238D01*
X113315952Y-91130476D01*
X113220714Y-91178095D01*
X114696905Y-90892381D02*
X114220714Y-90892381D01*
X114173095Y-91368571D01*
X114220714Y-91320952D01*
X114315952Y-91273333D01*
X114554048Y-91273333D01*
X114649286Y-91320952D01*
X114696905Y-91368571D01*
X114744524Y-91463810D01*
X114744524Y-91701905D01*
X114696905Y-91797143D01*
X114649286Y-91844762D01*
X114554048Y-91892381D01*
X114315952Y-91892381D01*
X114220714Y-91844762D01*
X114173095Y-91797143D01*
X114173095Y-88447619D02*
X114220714Y-88400000D01*
X114315952Y-88352381D01*
X114554048Y-88352381D01*
X114649286Y-88400000D01*
X114696905Y-88447619D01*
X114744524Y-88542857D01*
X114744524Y-88638095D01*
X114696905Y-88780952D01*
X114125476Y-89352381D01*
X114744524Y-89352381D01*
X114411190Y-85812381D02*
X114506429Y-85812381D01*
X114601667Y-85860000D01*
X114649286Y-85907619D01*
X114696905Y-86002857D01*
X114744524Y-86193333D01*
X114744524Y-86431429D01*
X114696905Y-86621905D01*
X114649286Y-86717143D01*
X114601667Y-86764762D01*
X114506429Y-86812381D01*
X114411190Y-86812381D01*
X114315952Y-86764762D01*
X114268333Y-86717143D01*
X114220714Y-86621905D01*
X114173095Y-86431429D01*
X114173095Y-86193333D01*
X114220714Y-86002857D01*
X114268333Y-85907619D01*
X114315952Y-85860000D01*
X114411190Y-85812381D01*
X114649286Y-83605714D02*
X114649286Y-84272381D01*
X114411190Y-83224762D02*
X114173095Y-83939048D01*
X114792143Y-83939048D01*
X114696905Y-80732381D02*
X114220714Y-80732381D01*
X114173095Y-81208571D01*
X114220714Y-81160952D01*
X114315952Y-81113333D01*
X114554048Y-81113333D01*
X114649286Y-81160952D01*
X114696905Y-81208571D01*
X114744524Y-81303810D01*
X114744524Y-81541905D01*
X114696905Y-81637143D01*
X114649286Y-81684762D01*
X114554048Y-81732381D01*
X114315952Y-81732381D01*
X114220714Y-81684762D01*
X114173095Y-81637143D01*
X113792143Y-79192381D02*
X113220714Y-79192381D01*
X113506428Y-79192381D02*
X113506428Y-78192381D01*
X113411190Y-78335238D01*
X113315952Y-78430476D01*
X113220714Y-78478095D01*
X114125476Y-78192381D02*
X114744524Y-78192381D01*
X114411190Y-78573333D01*
X114554048Y-78573333D01*
X114649286Y-78620952D01*
X114696905Y-78668571D01*
X114744524Y-78763810D01*
X114744524Y-79001905D01*
X114696905Y-79097143D01*
X114649286Y-79144762D01*
X114554048Y-79192381D01*
X114268333Y-79192381D01*
X114173095Y-79144762D01*
X114125476Y-79097143D01*
X113792143Y-76652381D02*
X113220714Y-76652381D01*
X113506428Y-76652381D02*
X113506428Y-75652381D01*
X113411190Y-75795238D01*
X113315952Y-75890476D01*
X113220714Y-75938095D01*
X114173095Y-75747619D02*
X114220714Y-75700000D01*
X114315952Y-75652381D01*
X114554048Y-75652381D01*
X114649286Y-75700000D01*
X114696905Y-75747619D01*
X114744524Y-75842857D01*
X114744524Y-75938095D01*
X114696905Y-76080952D01*
X114125476Y-76652381D01*
X114744524Y-76652381D01*
X113792143Y-74112381D02*
X113220714Y-74112381D01*
X113506428Y-74112381D02*
X113506428Y-73112381D01*
X113411190Y-73255238D01*
X113315952Y-73350476D01*
X113220714Y-73398095D01*
X114649286Y-73445714D02*
X114649286Y-74112381D01*
X114411190Y-73064762D02*
X114173095Y-73779048D01*
X114792143Y-73779048D01*
X113792143Y-71572381D02*
X113220714Y-71572381D01*
X113506428Y-71572381D02*
X113506428Y-70572381D01*
X113411190Y-70715238D01*
X113315952Y-70810476D01*
X113220714Y-70858095D01*
X114649286Y-70572381D02*
X114458809Y-70572381D01*
X114363571Y-70620000D01*
X114315952Y-70667619D01*
X114220714Y-70810476D01*
X114173095Y-71000952D01*
X114173095Y-71381905D01*
X114220714Y-71477143D01*
X114268333Y-71524762D01*
X114363571Y-71572381D01*
X114554048Y-71572381D01*
X114649286Y-71524762D01*
X114696905Y-71477143D01*
X114744524Y-71381905D01*
X114744524Y-71143810D01*
X114696905Y-71048571D01*
X114649286Y-71000952D01*
X114554048Y-70953333D01*
X114363571Y-70953333D01*
X114268333Y-71000952D01*
X114220714Y-71048571D01*
X114173095Y-71143810D01*
D12*
X120650000Y-102235000D03*
D13*
X120650000Y-106735000D03*
X127150000Y-106735000D03*
X127150000Y-102235000D03*
D12*
X142240000Y-102235000D03*
D13*
X142240000Y-106735000D03*
X148740000Y-106735000D03*
X148740000Y-102235000D03*
D14*
X116840000Y-68580000D03*
D15*
X116840000Y-71120000D03*
X116840000Y-73660000D03*
X116840000Y-76200000D03*
X116840000Y-78740000D03*
X116840000Y-81280000D03*
X116840000Y-83820000D03*
X116840000Y-86360000D03*
X116840000Y-88900000D03*
X116840000Y-91440000D03*
X116840000Y-93980000D03*
X116840000Y-96520000D03*
D16*
X133985000Y-95805000D03*
X133985000Y-98505000D03*
D17*
X126935000Y-68580000D03*
D18*
X126935000Y-70580000D03*
X126935000Y-72580000D03*
X126935000Y-74580000D03*
X126935000Y-76580000D03*
X126935000Y-78580000D03*
X126935000Y-80580000D03*
X126935000Y-82580000D03*
D19*
X129625000Y-84330000D03*
X131625000Y-84330000D03*
X133625000Y-84330000D03*
X135625000Y-84330000D03*
X137625000Y-84330000D03*
X139625000Y-84330000D03*
D18*
X142335000Y-82580000D03*
X142235000Y-80580000D03*
X142335000Y-78580000D03*
X142335000Y-76580000D03*
X142335000Y-74580000D03*
X142335000Y-72580000D03*
X142335000Y-70580000D03*
X142335000Y-68580000D03*
D20*
X149305000Y-73660000D03*
X146605000Y-73660000D03*
D16*
X136525000Y-95805000D03*
X136525000Y-98505000D03*
X139065000Y-95805000D03*
X139065000Y-98505000D03*
D14*
X152400000Y-78740000D03*
D15*
X152400000Y-81280000D03*
X152400000Y-83820000D03*
X152400000Y-86360000D03*
D14*
X152400000Y-68580000D03*
D15*
X152400000Y-71120000D03*
X152400000Y-73660000D03*
D21*
X152400000Y-91440000D03*
D22*
X152400000Y-93980000D03*
D23*
X149225000Y-77470000D03*
X149225000Y-93980000D03*
X127000000Y-90805000D03*
X134620000Y-87884000D03*
X128905000Y-92710000D03*
X136652000Y-87884000D03*
X130810000Y-94615000D03*
X136525000Y-100965000D03*
X125095000Y-88900000D03*
X123190000Y-86995000D03*
X139065000Y-102235000D03*
X121285000Y-85090000D03*
X122555000Y-82550000D03*
X120650000Y-99060000D03*
X123190000Y-68580000D03*
D24*
X142240000Y-106735000D02*
X145415000Y-103560000D01*
X147955000Y-93980000D02*
X149225000Y-93980000D01*
X145415000Y-96520000D02*
X147955000Y-93980000D01*
X145415000Y-103560000D02*
X145415000Y-96520000D01*
X120650000Y-106735000D02*
X122610000Y-104775000D01*
X140280000Y-104775000D02*
X142240000Y-106735000D01*
X122610000Y-104775000D02*
X140280000Y-104775000D01*
X152400000Y-93980000D02*
X149225000Y-93980000D01*
X141635000Y-82580000D02*
X144115000Y-82580000D01*
X144115000Y-82580000D02*
X149225000Y-77470000D01*
X149225000Y-77470000D02*
X149225000Y-73660000D01*
X149225000Y-73660000D02*
X152400000Y-73660000D01*
X141635000Y-80580000D02*
X144080000Y-80580000D01*
X146605000Y-78055000D02*
X146605000Y-73660000D01*
X144080000Y-80580000D02*
X146605000Y-78055000D01*
X126365000Y-91440000D02*
X127000000Y-90805000D01*
X116840000Y-91440000D02*
X126365000Y-91440000D01*
X139065000Y-95805000D02*
X139065000Y-93980000D01*
X136525000Y-95805000D02*
X136525000Y-93980000D01*
X133985000Y-95805000D02*
X133985000Y-93980000D01*
X147955000Y-91440000D02*
X145415000Y-93980000D01*
X145415000Y-93980000D02*
X139065000Y-93980000D01*
X139065000Y-93980000D02*
X136525000Y-93980000D01*
X136525000Y-93980000D02*
X135255000Y-93980000D01*
X135255000Y-93980000D02*
X133985000Y-93980000D01*
X133985000Y-93980000D02*
X132715000Y-93980000D01*
X132715000Y-93980000D02*
X124460000Y-85725000D01*
X124460000Y-85725000D02*
X124460000Y-83820000D01*
X124460000Y-83820000D02*
X125700000Y-82580000D01*
X152400000Y-91440000D02*
X149225000Y-91440000D01*
X149225000Y-91440000D02*
X147955000Y-91440000D01*
X147955000Y-91440000D02*
X149225000Y-91440000D01*
X149225000Y-91440000D02*
X147955000Y-91440000D01*
X125700000Y-82580000D02*
X127635000Y-82580000D01*
X127635000Y-72580000D02*
X128460000Y-72580000D01*
X128240000Y-82580000D02*
X129540000Y-81280000D01*
X128240000Y-82580000D02*
X127635000Y-82580000D01*
X129540000Y-73660000D02*
X129540000Y-81280000D01*
X128460000Y-72580000D02*
X129540000Y-73660000D01*
X116840000Y-68580000D02*
X120015000Y-68580000D01*
X122015000Y-70580000D02*
X127635000Y-70580000D01*
X120015000Y-68580000D02*
X122015000Y-70580000D01*
X116840000Y-71120000D02*
X120015000Y-71120000D01*
X123475000Y-74580000D02*
X127635000Y-74580000D01*
X120015000Y-71120000D02*
X123475000Y-74580000D01*
X116840000Y-73660000D02*
X120015000Y-73660000D01*
X122935000Y-76580000D02*
X127635000Y-76580000D01*
X120015000Y-73660000D02*
X122935000Y-76580000D01*
X116840000Y-76200000D02*
X120015000Y-76200000D01*
X122395000Y-78580000D02*
X127635000Y-78580000D01*
X120015000Y-76200000D02*
X122395000Y-78580000D01*
X116840000Y-78740000D02*
X120015000Y-78740000D01*
X121855000Y-80580000D02*
X127635000Y-80580000D01*
X120015000Y-78740000D02*
X121855000Y-80580000D01*
X116840000Y-93980000D02*
X127635000Y-93980000D01*
X133625000Y-86847000D02*
X134620000Y-87842000D01*
X134620000Y-87842000D02*
X134620000Y-87884000D01*
X133625000Y-86847000D02*
X133625000Y-84330000D01*
X127635000Y-93980000D02*
X128905000Y-92710000D01*
X116840000Y-96520000D02*
X128905000Y-96520000D01*
X135625000Y-86857000D02*
X136652000Y-87884000D01*
X135625000Y-86857000D02*
X135625000Y-84330000D01*
X128905000Y-96520000D02*
X130810000Y-94615000D01*
X136525000Y-98505000D02*
X136525000Y-100965000D01*
X116840000Y-88900000D02*
X125095000Y-88900000D01*
X116840000Y-86360000D02*
X120015000Y-86360000D01*
X120650000Y-86995000D02*
X123190000Y-86995000D01*
X120015000Y-86360000D02*
X120650000Y-86995000D01*
X139065000Y-102235000D02*
X139065000Y-98505000D01*
X142240000Y-102235000D02*
X139065000Y-102235000D01*
X120015000Y-83820000D02*
X121285000Y-85090000D01*
X116840000Y-83820000D02*
X120015000Y-83820000D01*
X116840000Y-81280000D02*
X120015000Y-81280000D01*
X121285000Y-82550000D02*
X122555000Y-82550000D01*
X120015000Y-81280000D02*
X121285000Y-82550000D01*
X152400000Y-78740000D02*
X150495000Y-78740000D01*
X139625000Y-85650000D02*
X139625000Y-84330000D01*
X140335000Y-86360000D02*
X139625000Y-85650000D01*
X142875000Y-86360000D02*
X140335000Y-86360000D01*
X150495000Y-78740000D02*
X142875000Y-86360000D01*
X139625000Y-85015000D02*
X139625000Y-84330000D01*
X152400000Y-81280000D02*
X150495000Y-81280000D01*
X137625000Y-86190000D02*
X137625000Y-84330000D01*
X139700000Y-88265000D02*
X137625000Y-86190000D01*
X143510000Y-88265000D02*
X139700000Y-88265000D01*
X150495000Y-81280000D02*
X143510000Y-88265000D01*
X152400000Y-68580000D02*
X141635000Y-68580000D01*
X152400000Y-71120000D02*
X149225000Y-71120000D01*
X148685000Y-70580000D02*
X141635000Y-70580000D01*
X149225000Y-71120000D02*
X148685000Y-70580000D01*
X127635000Y-68580000D02*
X123190000Y-68580000D01*
X120650000Y-99060000D02*
X130175000Y-99060000D01*
X120650000Y-102235000D02*
X120650000Y-99060000D01*
X130730000Y-98505000D02*
X133985000Y-98505000D01*
X130175000Y-99060000D02*
X130730000Y-98505000D01*
X152400000Y-86360000D02*
X150495000Y-86360000D01*
X129625000Y-88350000D02*
X129625000Y-84330000D01*
X133350000Y-92075000D02*
X129625000Y-88350000D01*
X144780000Y-92075000D02*
X133350000Y-92075000D01*
X150495000Y-86360000D02*
X144780000Y-92075000D01*
X152400000Y-83820000D02*
X150495000Y-83820000D01*
X131625000Y-87810000D02*
X131625000Y-84330000D01*
X133985000Y-90170000D02*
X131625000Y-87810000D01*
X144145000Y-90170000D02*
X133985000Y-90170000D01*
X150495000Y-83820000D02*
X144145000Y-90170000D01*
M02*
