G04 #@! TF.FileFunction,Copper,L2,Bot,Signal*
%FSLAX46Y46*%
G04 Gerber Fmt 4.6, Leading zero omitted, Abs format (unit mm)*
G04 Created by KiCad (PCBNEW 4.0.2-stable) date 8/25/2016 6:13:52 PM*
%MOMM*%
G01*
G04 APERTURE LIST*
%ADD10C,0.100000*%
%ADD11R,2.000000X2.000000*%
%ADD12C,2.000000*%
%ADD13R,2.032000X1.727200*%
%ADD14O,2.032000X1.727200*%
%ADD15R,2.500000X1.100000*%
%ADD16O,2.500000X1.100000*%
%ADD17R,2.032000X2.032000*%
%ADD18O,2.032000X2.032000*%
%ADD19C,1.500000*%
%ADD20C,0.500000*%
G04 APERTURE END LIST*
D10*
D11*
X120650000Y-102235000D03*
D12*
X120650000Y-106735000D03*
X127150000Y-106735000D03*
X127150000Y-102235000D03*
D11*
X142240000Y-102235000D03*
D12*
X142240000Y-106735000D03*
X148740000Y-106735000D03*
X148740000Y-102235000D03*
D13*
X116840000Y-68580000D03*
D14*
X116840000Y-71120000D03*
X116840000Y-73660000D03*
X116840000Y-76200000D03*
X116840000Y-78740000D03*
X116840000Y-81280000D03*
X116840000Y-83820000D03*
X116840000Y-86360000D03*
X116840000Y-88900000D03*
X116840000Y-91440000D03*
X116840000Y-93980000D03*
X116840000Y-96520000D03*
D15*
X126935000Y-68580000D03*
D16*
X126935000Y-70580000D03*
X126935000Y-72580000D03*
X126935000Y-74580000D03*
X126935000Y-76580000D03*
X126935000Y-78580000D03*
X126935000Y-80580000D03*
X126935000Y-82580000D03*
X142335000Y-82580000D03*
X142235000Y-80580000D03*
X142335000Y-78580000D03*
X142335000Y-76580000D03*
X142335000Y-74580000D03*
X142335000Y-72580000D03*
X142335000Y-70580000D03*
X142335000Y-68580000D03*
D13*
X152400000Y-78740000D03*
D14*
X152400000Y-81280000D03*
X152400000Y-83820000D03*
X152400000Y-86360000D03*
D13*
X152400000Y-68580000D03*
D14*
X152400000Y-71120000D03*
X152400000Y-73660000D03*
D17*
X152400000Y-91440000D03*
D18*
X152400000Y-93980000D03*
D19*
X149225000Y-77470000D03*
X149225000Y-93980000D03*
X127000000Y-90805000D03*
X134620000Y-87884000D03*
X128905000Y-92710000D03*
X136652000Y-87884000D03*
X130810000Y-94615000D03*
X136525000Y-100965000D03*
X125095000Y-88900000D03*
X123190000Y-86995000D03*
X139065000Y-102235000D03*
X121285000Y-85090000D03*
X122555000Y-82550000D03*
X120650000Y-99060000D03*
X123190000Y-68580000D03*
D20*
X149225000Y-93980000D02*
X149225000Y-77470000D01*
X130810000Y-88900000D02*
X139130000Y-80580000D01*
X127000000Y-90805000D02*
X128905000Y-88900000D01*
X128905000Y-88900000D02*
X130810000Y-88900000D01*
X139130000Y-80580000D02*
X141635000Y-80580000D01*
X133731000Y-87884000D02*
X134620000Y-87884000D01*
X128905000Y-92710000D02*
X133731000Y-87884000D01*
X136652000Y-88773000D02*
X136652000Y-87884000D01*
X130810000Y-94615000D02*
X136652000Y-88773000D01*
X125095000Y-93345000D02*
X125095000Y-88900000D01*
X132715000Y-100965000D02*
X125095000Y-93345000D01*
X136525000Y-100965000D02*
X132715000Y-100965000D01*
X139225000Y-78580000D02*
X141635000Y-78580000D01*
X130175000Y-87630000D02*
X139225000Y-78580000D01*
X126365000Y-87630000D02*
X130175000Y-87630000D01*
X125095000Y-88900000D02*
X126365000Y-87630000D01*
X123190000Y-86995000D02*
X123190000Y-93980000D01*
X138430000Y-102870000D02*
X139065000Y-102235000D01*
X132080000Y-102870000D02*
X138430000Y-102870000D01*
X123190000Y-93980000D02*
X132080000Y-102870000D01*
X139320000Y-76580000D02*
X141635000Y-76580000D01*
X123190000Y-86995000D02*
X123825000Y-86360000D01*
X123825000Y-86360000D02*
X129540000Y-86360000D01*
X129540000Y-86360000D02*
X139320000Y-76580000D01*
X121285000Y-85090000D02*
X128905000Y-85090000D01*
X139415000Y-74580000D02*
X141635000Y-74580000D01*
X128905000Y-85090000D02*
X139415000Y-74580000D01*
X139510000Y-72580000D02*
X141635000Y-72580000D01*
X128270000Y-83820000D02*
X139510000Y-72580000D01*
X123825000Y-83820000D02*
X128270000Y-83820000D01*
X122555000Y-82550000D02*
X123825000Y-83820000D01*
X119380000Y-97790000D02*
X120650000Y-99060000D01*
X119380000Y-69850000D02*
X119380000Y-97790000D01*
X120650000Y-68580000D02*
X119380000Y-69850000D01*
X123190000Y-68580000D02*
X120650000Y-68580000D01*
M02*
