G04 #@! TF.FileFunction,Copper,L1,Top,Signal*
%FSLAX46Y46*%
G04 Gerber Fmt 4.6, Leading zero omitted, Abs format (unit mm)*
G04 Created by KiCad (PCBNEW 4.0.2+e4-6225~38~ubuntu16.04.1-stable) date Mon 01 Aug 2016 04:10:22 PM PDT*
%MOMM*%
G01*
G04 APERTURE LIST*
%ADD10C,0.100000*%
%ADD11R,2.032000X1.727200*%
%ADD12O,2.032000X1.727200*%
%ADD13R,0.600000X0.250000*%
%ADD14R,2.600000X3.000000*%
%ADD15C,0.250000*%
G04 APERTURE END LIST*
D10*
D11*
X154940000Y-92710000D03*
D12*
X154940000Y-95250000D03*
X154940000Y-97790000D03*
X154940000Y-100330000D03*
X154940000Y-102870000D03*
X154940000Y-105410000D03*
X154940000Y-107950000D03*
D11*
X137160000Y-107950000D03*
D12*
X137160000Y-105410000D03*
X137160000Y-102870000D03*
X137160000Y-100330000D03*
X137160000Y-97790000D03*
X137160000Y-95250000D03*
X137160000Y-92710000D03*
D13*
X148450000Y-101830000D03*
X148450000Y-101330000D03*
X148450000Y-100830000D03*
X148450000Y-100330000D03*
X148450000Y-99830000D03*
X148450000Y-99330000D03*
X148450000Y-98830000D03*
X143650000Y-98830000D03*
X143650000Y-99330000D03*
X143650000Y-99830000D03*
X143650000Y-100330000D03*
X143650000Y-100830000D03*
X143650000Y-101330000D03*
X143650000Y-101830000D03*
D14*
X146050000Y-100330000D03*
D15*
X148450000Y-102730000D02*
X153670000Y-107950000D01*
X153670000Y-107950000D02*
X154940000Y-107950000D01*
X148450000Y-101830000D02*
X148450000Y-102730000D01*
X148450000Y-97930000D02*
X153670000Y-92710000D01*
X153670000Y-92710000D02*
X154940000Y-92710000D01*
X148450000Y-98830000D02*
X148450000Y-97930000D01*
X148450000Y-98830000D02*
X148275000Y-98830000D01*
X148275000Y-98830000D02*
X148025000Y-98580000D01*
X148025000Y-98580000D02*
X147600000Y-98580000D01*
X147600000Y-98580000D02*
X146050000Y-100130000D01*
X146050000Y-100130000D02*
X146050000Y-100330000D01*
X152400000Y-95250000D02*
X154940000Y-95250000D01*
X149860000Y-97790000D02*
X152400000Y-95250000D01*
X149860000Y-99060000D02*
X149860000Y-97790000D01*
X149590000Y-99330000D02*
X149860000Y-99060000D01*
X148450000Y-99330000D02*
X149590000Y-99330000D01*
X148450000Y-100330000D02*
X154940000Y-100330000D01*
X148450000Y-100830000D02*
X149726410Y-100830000D01*
X149726410Y-100830000D02*
X151766410Y-102870000D01*
X151766410Y-102870000D02*
X152400000Y-102870000D01*
X152400000Y-102870000D02*
X154940000Y-102870000D01*
X152400000Y-105410000D02*
X154940000Y-105410000D01*
X149860000Y-102870000D02*
X152400000Y-105410000D01*
X149860000Y-101600000D02*
X149860000Y-102870000D01*
X149590000Y-101330000D02*
X149860000Y-101600000D01*
X148450000Y-101330000D02*
X149590000Y-101330000D01*
X143650000Y-102730000D02*
X138430000Y-107950000D01*
X138430000Y-107950000D02*
X137160000Y-107950000D01*
X143650000Y-101830000D02*
X143650000Y-102730000D01*
X142240000Y-102870000D02*
X139700000Y-105410000D01*
X139700000Y-105410000D02*
X137160000Y-105410000D01*
X142240000Y-101600000D02*
X142240000Y-102870000D01*
X142510000Y-101330000D02*
X142240000Y-101600000D01*
X143650000Y-101330000D02*
X142510000Y-101330000D01*
X140333590Y-102870000D02*
X137160000Y-102870000D01*
X143650000Y-100830000D02*
X142373590Y-100830000D01*
X142373590Y-100830000D02*
X140333590Y-102870000D01*
X143650000Y-100330000D02*
X137160000Y-100330000D01*
X143650000Y-99830000D02*
X142373590Y-99830000D01*
X142373590Y-99830000D02*
X140333590Y-97790000D01*
X140333590Y-97790000D02*
X137160000Y-97790000D01*
X142240000Y-97790000D02*
X139700000Y-95250000D01*
X139700000Y-95250000D02*
X137160000Y-95250000D01*
X142240000Y-99060000D02*
X142240000Y-97790000D01*
X142510000Y-99330000D02*
X142240000Y-99060000D01*
X143650000Y-99330000D02*
X142510000Y-99330000D01*
X143650000Y-97930000D02*
X138430000Y-92710000D01*
X138430000Y-92710000D02*
X137160000Y-92710000D01*
X143650000Y-98830000D02*
X143650000Y-97930000D01*
M02*
