G04 #@! TF.FileFunction,Copper,L1,Top,Signal*
%FSLAX46Y46*%
G04 Gerber Fmt 4.6, Leading zero omitted, Abs format (unit mm)*
G04 Created by KiCad (PCBNEW 4.0.2+e4-6225~38~ubuntu16.04.1-stable) date Thu 28 Jul 2016 06:37:42 PM PDT*
%MOMM*%
G01*
G04 APERTURE LIST*
%ADD10C,0.100000*%
%ADD11R,2.032000X1.727200*%
%ADD12O,2.032000X1.727200*%
%ADD13R,25.488900X0.939800*%
%ADD14R,25.146000X0.762000*%
%ADD15R,1.041400X5.994400*%
%ADD16R,1.193800X2.819900*%
%ADD17R,3.000000X1.000000*%
%ADD18C,1.016000*%
%ADD19C,1.778000*%
%ADD20C,0.635000*%
%ADD21C,0.254000*%
G04 APERTURE END LIST*
D10*
D11*
X147320000Y-106680000D03*
D12*
X147320000Y-109220000D03*
X147320000Y-111760000D03*
X147320000Y-114300000D03*
X147320000Y-116840000D03*
X147320000Y-119380000D03*
D13*
X175102550Y-125102900D03*
D14*
X175373000Y-100614200D03*
D15*
X161161700Y-120645200D03*
D16*
X161060100Y-103624350D03*
D17*
X159260000Y-116050000D03*
X159260000Y-114540000D03*
X159260000Y-113030000D03*
X159260000Y-111520000D03*
X159260000Y-110010000D03*
X159260000Y-108500000D03*
X191260000Y-110030000D03*
X191260000Y-116030000D03*
X191260000Y-113030000D03*
D18*
X159260000Y-116050000D02*
X156517400Y-116050000D01*
X153187400Y-119380000D02*
X150495000Y-119380000D01*
X156517400Y-116050000D02*
X153187400Y-119380000D01*
D19*
X150495000Y-119380000D02*
X147320000Y-119380000D01*
D18*
X159260000Y-114540000D02*
X155335000Y-114540000D01*
X153035000Y-116840000D02*
X150495000Y-116840000D01*
X155335000Y-114540000D02*
X153035000Y-116840000D01*
D20*
X159260000Y-114540000D02*
X159246000Y-114554000D01*
D19*
X150495000Y-116840000D02*
X147320000Y-116840000D01*
D21*
X147320000Y-109220000D02*
X146050000Y-109220000D01*
X146050000Y-109220000D02*
X145364199Y-108534199D01*
X145364199Y-108534199D02*
X145364199Y-105064559D01*
X145364199Y-105064559D02*
X146804408Y-103624350D01*
X146804408Y-103624350D02*
X160209200Y-103624350D01*
X160209200Y-103624350D02*
X161060100Y-103624350D01*
D19*
X151130000Y-109220000D02*
X147320000Y-109220000D01*
D20*
X158630000Y-121830000D02*
X159814800Y-120645200D01*
X159814800Y-120645200D02*
X161161700Y-120645200D01*
X158630000Y-125410000D02*
X158630000Y-121830000D01*
X161050000Y-127830000D02*
X158630000Y-125410000D01*
X173480350Y-127830000D02*
X161050000Y-127830000D01*
X175102550Y-126207800D02*
X173480350Y-127830000D01*
X191260000Y-116030000D02*
X191260000Y-127170000D01*
X191260000Y-127170000D02*
X190700000Y-127730000D01*
X190700000Y-127730000D02*
X176624750Y-127730000D01*
X176624750Y-127730000D02*
X175102550Y-126207800D01*
X175102550Y-126207800D02*
X175102550Y-125102900D01*
X191260000Y-113030000D02*
X191260000Y-116030000D01*
X191260000Y-110030000D02*
X191260000Y-113030000D01*
X190860000Y-98010000D02*
X191260000Y-98410000D01*
X191260000Y-98410000D02*
X191260000Y-110030000D01*
X176961200Y-98010000D02*
X190860000Y-98010000D01*
X175373000Y-100614200D02*
X175373000Y-99598200D01*
X175373000Y-99598200D02*
X176961200Y-98010000D01*
X161060100Y-103624350D02*
X159828200Y-103624350D01*
X159828200Y-103624350D02*
X158170000Y-101966150D01*
X158170000Y-101966150D02*
X158170000Y-99920000D01*
X160000000Y-98090000D02*
X174180000Y-98090000D01*
X158170000Y-99920000D02*
X160000000Y-98090000D01*
X174180000Y-98090000D02*
X175373000Y-99283000D01*
X175373000Y-99283000D02*
X175373000Y-100614200D01*
D18*
X159260000Y-110010000D02*
X155755400Y-110010000D01*
X154965400Y-109220000D02*
X151130000Y-109220000D01*
X155755400Y-110010000D02*
X154965400Y-109220000D01*
X159260000Y-113030000D02*
X154381200Y-113030000D01*
X153111200Y-114300000D02*
X150495000Y-114300000D01*
D19*
X150495000Y-114300000D02*
X147320000Y-114300000D01*
D18*
X154381200Y-113030000D02*
X153111200Y-114300000D01*
D19*
X151130000Y-106680000D02*
X147320000Y-106680000D01*
D18*
X159260000Y-108500000D02*
X157826800Y-108500000D01*
X157826800Y-108500000D02*
X156006800Y-106680000D01*
X156006800Y-106680000D02*
X151130000Y-106680000D01*
D19*
X150495000Y-111760000D02*
X147320000Y-111760000D01*
D18*
X159260000Y-111520000D02*
X153771600Y-111506000D01*
X153531600Y-111746000D02*
X150495000Y-111760000D01*
X153771600Y-111506000D02*
X153531600Y-111746000D01*
M02*
