G04 #@! TF.FileFunction,Copper,L1,Top,Signal*
%FSLAX46Y46*%
G04 Gerber Fmt 4.6, Leading zero omitted, Abs format (unit mm)*
G04 Created by KiCad (PCBNEW 4.0.2+e4-6225~38~ubuntu16.04.1-stable) date Fri 29 Jul 2016 04:21:50 PM PDT*
%MOMM*%
G01*
G04 APERTURE LIST*
%ADD10C,0.100000*%
%ADD11R,2.032000X1.727200*%
%ADD12O,2.032000X1.727200*%
%ADD13R,0.600000X1.000000*%
%ADD14C,0.635000*%
G04 APERTURE END LIST*
D10*
D11*
X142000000Y-101460000D03*
D12*
X142000000Y-104000000D03*
X142000000Y-106540000D03*
X142000000Y-109080000D03*
D13*
X148050000Y-106000000D03*
X149000000Y-106000000D03*
X149950000Y-106000000D03*
X149950000Y-103600000D03*
X148050000Y-103600000D03*
D14*
X148050000Y-106000000D02*
X147115000Y-106000000D01*
X143651000Y-104000000D02*
X142000000Y-104000000D01*
X147115000Y-106000000D02*
X145115000Y-104000000D01*
X145115000Y-104000000D02*
X143651000Y-104000000D01*
X148050000Y-103600000D02*
X148050000Y-103400000D01*
X148050000Y-103400000D02*
X146110000Y-101460000D01*
X146110000Y-101460000D02*
X143651000Y-101460000D01*
X143651000Y-101460000D02*
X142000000Y-101460000D01*
X147000000Y-108000000D02*
X145540000Y-106540000D01*
X145540000Y-106540000D02*
X142000000Y-106540000D01*
X149000000Y-108000000D02*
X147000000Y-108000000D01*
X149000000Y-106000000D02*
X149000000Y-108000000D01*
X146000000Y-110000000D02*
X145080000Y-109080000D01*
X145080000Y-109080000D02*
X142000000Y-109080000D01*
X151000000Y-110000000D02*
X146000000Y-110000000D01*
X151000000Y-106115000D02*
X151000000Y-110000000D01*
X149950000Y-106000000D02*
X150885000Y-106000000D01*
X150885000Y-106000000D02*
X151000000Y-106115000D01*
M02*
