G04 #@! TF.FileFunction,Copper,L2,Bot,Signal*
%FSLAX46Y46*%
G04 Gerber Fmt 4.6, Leading zero omitted, Abs format (unit mm)*
G04 Created by KiCad (PCBNEW 4.0.3+e1-6302~38~ubuntu16.04.1-stable) date Wed Sep 14 14:45:26 2016*
%MOMM*%
%LPD*%
G01*
G04 APERTURE LIST*
%ADD10C,0.100000*%
%ADD11R,5.080000X6.350000*%
%ADD12C,1.980000*%
%ADD13R,2.032000X2.032000*%
%ADD14O,2.032000X2.032000*%
%ADD15C,1.550000*%
%ADD16C,0.450000*%
%ADD17C,1.000000*%
%ADD18C,0.300000*%
G04 APERTURE END LIST*
D10*
D11*
X151090000Y-57000000D03*
X162000000Y-57000000D03*
X151090000Y-112140000D03*
X162000000Y-112140000D03*
D12*
X146470000Y-60175000D03*
D13*
X154960000Y-52500000D03*
D14*
X157500000Y-52500000D03*
D15*
X162500000Y-88000000D03*
D16*
X151090000Y-57000000D02*
X151090000Y-56365000D01*
X154955000Y-52500000D02*
X154960000Y-52500000D01*
X151090000Y-56365000D02*
X154955000Y-52500000D01*
X162000000Y-57000000D02*
X157500000Y-52500000D01*
X162500000Y-88000000D02*
X162500000Y-57500000D01*
X162500000Y-57500000D02*
X162000000Y-57000000D01*
D17*
X151090000Y-112140000D02*
X162000000Y-112140000D01*
D18*
G36*
X152794000Y-51255251D02*
X152794000Y-52108500D01*
X153081500Y-52396000D01*
X154856000Y-52396000D01*
X154856000Y-52376000D01*
X155064000Y-52376000D01*
X155064000Y-52396000D01*
X155084000Y-52396000D01*
X155084000Y-52604000D01*
X155064000Y-52604000D01*
X155064000Y-54378500D01*
X155351500Y-54666000D01*
X156204749Y-54666000D01*
X156618771Y-54494506D01*
X156628674Y-54501123D01*
X157457566Y-54666000D01*
X157542434Y-54666000D01*
X157691754Y-54636298D01*
X158287471Y-55232015D01*
X158287471Y-60175000D01*
X158367659Y-60601164D01*
X158619522Y-60992570D01*
X159003821Y-61255150D01*
X159460000Y-61347529D01*
X161125000Y-61347529D01*
X161125000Y-86652614D01*
X160869016Y-86908151D01*
X160575335Y-87615414D01*
X160574667Y-88381226D01*
X160867113Y-89089000D01*
X161408151Y-89630984D01*
X162115414Y-89924665D01*
X162881226Y-89925333D01*
X163589000Y-89632887D01*
X164130984Y-89091849D01*
X164424665Y-88384586D01*
X164425333Y-87618774D01*
X164132887Y-86911000D01*
X163875000Y-86652662D01*
X163875000Y-61347529D01*
X164540000Y-61347529D01*
X164966164Y-61267341D01*
X165357570Y-61015478D01*
X165620150Y-60631179D01*
X165712529Y-60175000D01*
X165712529Y-53825000D01*
X165632341Y-53398836D01*
X165380478Y-53007430D01*
X164996179Y-52744850D01*
X164540000Y-52652471D01*
X159678106Y-52652471D01*
X159708434Y-52500000D01*
X159543557Y-51671108D01*
X159245477Y-51225000D01*
X173775000Y-51225000D01*
X173775000Y-118775000D01*
X141225000Y-118775000D01*
X141225000Y-108965000D01*
X147377471Y-108965000D01*
X147377471Y-115315000D01*
X147457659Y-115741164D01*
X147709522Y-116132570D01*
X148093821Y-116395150D01*
X148550000Y-116487529D01*
X153630000Y-116487529D01*
X154056164Y-116407341D01*
X154447570Y-116155478D01*
X154710150Y-115771179D01*
X154802529Y-115315000D01*
X154802529Y-113790000D01*
X158287471Y-113790000D01*
X158287471Y-115315000D01*
X158367659Y-115741164D01*
X158619522Y-116132570D01*
X159003821Y-116395150D01*
X159460000Y-116487529D01*
X164540000Y-116487529D01*
X164966164Y-116407341D01*
X165357570Y-116155478D01*
X165620150Y-115771179D01*
X165712529Y-115315000D01*
X165712529Y-108965000D01*
X165632341Y-108538836D01*
X165380478Y-108147430D01*
X164996179Y-107884850D01*
X164540000Y-107792471D01*
X159460000Y-107792471D01*
X159033836Y-107872659D01*
X158642430Y-108124522D01*
X158379850Y-108508821D01*
X158287471Y-108965000D01*
X158287471Y-110490000D01*
X154802529Y-110490000D01*
X154802529Y-108965000D01*
X154722341Y-108538836D01*
X154470478Y-108147430D01*
X154086179Y-107884850D01*
X153630000Y-107792471D01*
X148550000Y-107792471D01*
X148123836Y-107872659D01*
X147732430Y-108124522D01*
X147469850Y-108508821D01*
X147377471Y-108965000D01*
X141225000Y-108965000D01*
X141225000Y-60598805D01*
X144329629Y-60598805D01*
X144654739Y-61385629D01*
X145256205Y-61988146D01*
X146042460Y-62314628D01*
X146893805Y-62315371D01*
X147680629Y-61990261D01*
X148283146Y-61388795D01*
X148311341Y-61320895D01*
X148321251Y-61325000D01*
X150698500Y-61325000D01*
X150986000Y-61037500D01*
X150986000Y-57104000D01*
X151194000Y-57104000D01*
X151194000Y-61037500D01*
X151481500Y-61325000D01*
X153858749Y-61325000D01*
X154281423Y-61149923D01*
X154604923Y-60826422D01*
X154780000Y-60403749D01*
X154780000Y-57391500D01*
X154492500Y-57104000D01*
X151194000Y-57104000D01*
X150986000Y-57104000D01*
X147687500Y-57104000D01*
X147400000Y-57391500D01*
X147400000Y-58244012D01*
X146897540Y-58035372D01*
X146046195Y-58034629D01*
X145259371Y-58359739D01*
X144656854Y-58961205D01*
X144330372Y-59747460D01*
X144329629Y-60598805D01*
X141225000Y-60598805D01*
X141225000Y-53596251D01*
X147400000Y-53596251D01*
X147400000Y-56608500D01*
X147687500Y-56896000D01*
X150986000Y-56896000D01*
X150986000Y-52962500D01*
X151194000Y-52962500D01*
X151194000Y-56896000D01*
X154492500Y-56896000D01*
X154780000Y-56608500D01*
X154780000Y-54454500D01*
X154856000Y-54378500D01*
X154856000Y-52604000D01*
X153081500Y-52604000D01*
X153010500Y-52675000D01*
X151481500Y-52675000D01*
X151194000Y-52962500D01*
X150986000Y-52962500D01*
X150698500Y-52675000D01*
X148321251Y-52675000D01*
X147898577Y-52850077D01*
X147575077Y-53173578D01*
X147400000Y-53596251D01*
X141225000Y-53596251D01*
X141225000Y-51225000D01*
X152806530Y-51225000D01*
X152794000Y-51255251D01*
X152794000Y-51255251D01*
G37*
X152794000Y-51255251D02*
X152794000Y-52108500D01*
X153081500Y-52396000D01*
X154856000Y-52396000D01*
X154856000Y-52376000D01*
X155064000Y-52376000D01*
X155064000Y-52396000D01*
X155084000Y-52396000D01*
X155084000Y-52604000D01*
X155064000Y-52604000D01*
X155064000Y-54378500D01*
X155351500Y-54666000D01*
X156204749Y-54666000D01*
X156618771Y-54494506D01*
X156628674Y-54501123D01*
X157457566Y-54666000D01*
X157542434Y-54666000D01*
X157691754Y-54636298D01*
X158287471Y-55232015D01*
X158287471Y-60175000D01*
X158367659Y-60601164D01*
X158619522Y-60992570D01*
X159003821Y-61255150D01*
X159460000Y-61347529D01*
X161125000Y-61347529D01*
X161125000Y-86652614D01*
X160869016Y-86908151D01*
X160575335Y-87615414D01*
X160574667Y-88381226D01*
X160867113Y-89089000D01*
X161408151Y-89630984D01*
X162115414Y-89924665D01*
X162881226Y-89925333D01*
X163589000Y-89632887D01*
X164130984Y-89091849D01*
X164424665Y-88384586D01*
X164425333Y-87618774D01*
X164132887Y-86911000D01*
X163875000Y-86652662D01*
X163875000Y-61347529D01*
X164540000Y-61347529D01*
X164966164Y-61267341D01*
X165357570Y-61015478D01*
X165620150Y-60631179D01*
X165712529Y-60175000D01*
X165712529Y-53825000D01*
X165632341Y-53398836D01*
X165380478Y-53007430D01*
X164996179Y-52744850D01*
X164540000Y-52652471D01*
X159678106Y-52652471D01*
X159708434Y-52500000D01*
X159543557Y-51671108D01*
X159245477Y-51225000D01*
X173775000Y-51225000D01*
X173775000Y-118775000D01*
X141225000Y-118775000D01*
X141225000Y-108965000D01*
X147377471Y-108965000D01*
X147377471Y-115315000D01*
X147457659Y-115741164D01*
X147709522Y-116132570D01*
X148093821Y-116395150D01*
X148550000Y-116487529D01*
X153630000Y-116487529D01*
X154056164Y-116407341D01*
X154447570Y-116155478D01*
X154710150Y-115771179D01*
X154802529Y-115315000D01*
X154802529Y-113790000D01*
X158287471Y-113790000D01*
X158287471Y-115315000D01*
X158367659Y-115741164D01*
X158619522Y-116132570D01*
X159003821Y-116395150D01*
X159460000Y-116487529D01*
X164540000Y-116487529D01*
X164966164Y-116407341D01*
X165357570Y-116155478D01*
X165620150Y-115771179D01*
X165712529Y-115315000D01*
X165712529Y-108965000D01*
X165632341Y-108538836D01*
X165380478Y-108147430D01*
X164996179Y-107884850D01*
X164540000Y-107792471D01*
X159460000Y-107792471D01*
X159033836Y-107872659D01*
X158642430Y-108124522D01*
X158379850Y-108508821D01*
X158287471Y-108965000D01*
X158287471Y-110490000D01*
X154802529Y-110490000D01*
X154802529Y-108965000D01*
X154722341Y-108538836D01*
X154470478Y-108147430D01*
X154086179Y-107884850D01*
X153630000Y-107792471D01*
X148550000Y-107792471D01*
X148123836Y-107872659D01*
X147732430Y-108124522D01*
X147469850Y-108508821D01*
X147377471Y-108965000D01*
X141225000Y-108965000D01*
X141225000Y-60598805D01*
X144329629Y-60598805D01*
X144654739Y-61385629D01*
X145256205Y-61988146D01*
X146042460Y-62314628D01*
X146893805Y-62315371D01*
X147680629Y-61990261D01*
X148283146Y-61388795D01*
X148311341Y-61320895D01*
X148321251Y-61325000D01*
X150698500Y-61325000D01*
X150986000Y-61037500D01*
X150986000Y-57104000D01*
X151194000Y-57104000D01*
X151194000Y-61037500D01*
X151481500Y-61325000D01*
X153858749Y-61325000D01*
X154281423Y-61149923D01*
X154604923Y-60826422D01*
X154780000Y-60403749D01*
X154780000Y-57391500D01*
X154492500Y-57104000D01*
X151194000Y-57104000D01*
X150986000Y-57104000D01*
X147687500Y-57104000D01*
X147400000Y-57391500D01*
X147400000Y-58244012D01*
X146897540Y-58035372D01*
X146046195Y-58034629D01*
X145259371Y-58359739D01*
X144656854Y-58961205D01*
X144330372Y-59747460D01*
X144329629Y-60598805D01*
X141225000Y-60598805D01*
X141225000Y-53596251D01*
X147400000Y-53596251D01*
X147400000Y-56608500D01*
X147687500Y-56896000D01*
X150986000Y-56896000D01*
X150986000Y-52962500D01*
X151194000Y-52962500D01*
X151194000Y-56896000D01*
X154492500Y-56896000D01*
X154780000Y-56608500D01*
X154780000Y-54454500D01*
X154856000Y-54378500D01*
X154856000Y-52604000D01*
X153081500Y-52604000D01*
X153010500Y-52675000D01*
X151481500Y-52675000D01*
X151194000Y-52962500D01*
X150986000Y-52962500D01*
X150698500Y-52675000D01*
X148321251Y-52675000D01*
X147898577Y-52850077D01*
X147575077Y-53173578D01*
X147400000Y-53596251D01*
X141225000Y-53596251D01*
X141225000Y-51225000D01*
X152806530Y-51225000D01*
X152794000Y-51255251D01*
M02*
