G04 #@! TF.FileFunction,Copper,L1,Top,Signal*
%FSLAX46Y46*%
G04 Gerber Fmt 4.6, Leading zero omitted, Abs format (unit mm)*
G04 Created by KiCad (PCBNEW 4.0.3+e1-6302~38~ubuntu16.04.1-stable) date Thu Sep 15 15:36:45 2016*
%MOMM*%
%LPD*%
G01*
G04 APERTURE LIST*
%ADD10C,0.100000*%
%ADD11R,2.032000X2.032000*%
%ADD12O,2.032000X2.032000*%
%ADD13C,1.980000*%
%ADD14C,1.550000*%
%ADD15R,1.250000X1.000000*%
%ADD16R,1.198880X1.198880*%
%ADD17R,1.300000X0.700000*%
%ADD18R,1.050000X0.450000*%
%ADD19R,2.940000X3.580000*%
%ADD20R,3.000000X1.600000*%
%ADD21R,6.200000X5.800000*%
%ADD22R,1.800000X1.900000*%
%ADD23R,1.900000X1.900000*%
%ADD24R,2.100000X1.600000*%
%ADD25R,0.400000X1.350000*%
%ADD26C,0.450000*%
%ADD27C,1.000000*%
%ADD28C,0.350000*%
%ADD29C,0.300000*%
G04 APERTURE END LIST*
D10*
D11*
X154960000Y-52500000D03*
D12*
X157500000Y-52500000D03*
D13*
X146470000Y-60175000D03*
D14*
X150000000Y-70000000D03*
D15*
X160000000Y-81500000D03*
X160000000Y-79500000D03*
D16*
X150598040Y-78000000D03*
X148500000Y-78000000D03*
D17*
X158000000Y-81500000D03*
X158000000Y-79600000D03*
X155000000Y-79600000D03*
X155000000Y-81500000D03*
D18*
X152800000Y-85050000D03*
D19*
X150025000Y-82775000D03*
D18*
X152800000Y-83750000D03*
X152800000Y-84400000D03*
X152800000Y-83100000D03*
X152800000Y-82450000D03*
X152800000Y-81800000D03*
X152800000Y-81150000D03*
X152800000Y-80500000D03*
X147250000Y-85050000D03*
X147250000Y-84400000D03*
X147250000Y-83750000D03*
X147250000Y-83100000D03*
X147250000Y-82450000D03*
X147250000Y-81800000D03*
X147250000Y-81150000D03*
X147250000Y-80500000D03*
D20*
X164080000Y-90286000D03*
X164080000Y-85714000D03*
D21*
X156900000Y-88000000D03*
D22*
X161500000Y-118500000D03*
X153900000Y-118500000D03*
D23*
X156500000Y-118500000D03*
X158900000Y-118500000D03*
D24*
X154600000Y-115950000D03*
X160800000Y-115950000D03*
D25*
X156400000Y-115825000D03*
X157050000Y-115825000D03*
X157700000Y-115825000D03*
X158350000Y-115825000D03*
X159000000Y-115825000D03*
D14*
X162500000Y-88000000D03*
D26*
X152800000Y-83100000D02*
X159400000Y-83100000D01*
X159400000Y-83100000D02*
X160000000Y-82500000D01*
X160000000Y-82500000D02*
X160000000Y-81500000D01*
D27*
X154960000Y-52500000D02*
X153000000Y-52500000D01*
X154960000Y-52500000D02*
X154960000Y-54460000D01*
D26*
X159000000Y-114300000D02*
X159000000Y-114000000D01*
X146275000Y-85725000D02*
X146000000Y-86000000D01*
X147250000Y-85725000D02*
X146275000Y-85725000D01*
X147250000Y-85050000D02*
X147250000Y-85725000D01*
X147250000Y-81150000D02*
X148400000Y-81150000D01*
X148400000Y-81150000D02*
X150025000Y-82775000D01*
X159000000Y-115825000D02*
X159000000Y-114300000D01*
X150025000Y-82775000D02*
X150025000Y-86475000D01*
X150025000Y-86475000D02*
X150000000Y-86500000D01*
X152800000Y-81800000D02*
X154700000Y-81800000D01*
X154700000Y-81800000D02*
X155000000Y-81500000D01*
X152800000Y-81800000D02*
X151000000Y-81800000D01*
X151000000Y-81800000D02*
X150025000Y-82775000D01*
X147250000Y-82450000D02*
X149700000Y-82450000D01*
X149700000Y-82450000D02*
X150025000Y-82775000D01*
X158000000Y-78500000D02*
X157349990Y-77849990D01*
X157349990Y-77849990D02*
X151797490Y-77849990D01*
X151797490Y-77849990D02*
X151647480Y-78000000D01*
X151647480Y-78000000D02*
X150598040Y-78000000D01*
X158000000Y-78500000D02*
X158000000Y-79600000D01*
X148500000Y-78000000D02*
X147315746Y-78000000D01*
X145980747Y-84399999D02*
X146100001Y-84399999D01*
X147315746Y-78000000D02*
X145349990Y-79965756D01*
X145349990Y-79965756D02*
X145349990Y-83769242D01*
X145349990Y-83769242D02*
X145980747Y-84399999D01*
X147250000Y-84400000D02*
X146100001Y-84399999D01*
X156400000Y-115825000D02*
X156400000Y-114600000D01*
X156400000Y-114600000D02*
X148150001Y-106350001D01*
X148150001Y-106350001D02*
X148150000Y-85650000D01*
D28*
X148150000Y-85450000D02*
X148150000Y-85650000D01*
X148150000Y-84350000D02*
X148150000Y-85450000D01*
X148150000Y-83750000D02*
X148150000Y-84350000D01*
X147250000Y-83750000D02*
X148150000Y-83750000D01*
D26*
X147000000Y-79500000D02*
X146734998Y-79500000D01*
X146734998Y-79500000D02*
X146000000Y-80234998D01*
X146000000Y-80234998D02*
X146000000Y-83500000D01*
X146000000Y-83500000D02*
X146250000Y-83750000D01*
X147000000Y-79500000D02*
X148660000Y-79500000D01*
X148660000Y-79500000D02*
X151500000Y-79500000D01*
X147250000Y-80500000D02*
X147550000Y-80500000D01*
X147550000Y-80500000D02*
X148550000Y-79500000D01*
X148550000Y-79500000D02*
X148660000Y-79500000D01*
X152800000Y-82450000D02*
X157050000Y-82450000D01*
X157050000Y-82450000D02*
X158000000Y-81500000D01*
X152500000Y-78500000D02*
X151500000Y-79500000D01*
X156500000Y-78500000D02*
X152500000Y-78500000D01*
X156500000Y-81500000D02*
X156500000Y-78500000D01*
X158000000Y-81500000D02*
X156500000Y-81500000D01*
X151500000Y-79500000D02*
X152500000Y-80500000D01*
X152500000Y-80500000D02*
X152800000Y-80500000D01*
X147250000Y-83750000D02*
X146250000Y-83750000D01*
X152800000Y-81150000D02*
X153584998Y-81150000D01*
X153584998Y-81150000D02*
X153900000Y-80834998D01*
X153900000Y-80400000D02*
X154700000Y-79600000D01*
X153900000Y-80834998D02*
X153900000Y-80400000D01*
X154700000Y-79600000D02*
X155000000Y-79600000D01*
X165000000Y-93000000D02*
X165080000Y-92920000D01*
X165080000Y-92920000D02*
X165080000Y-90286000D01*
X154000000Y-93000000D02*
X165000000Y-93000000D01*
X152800000Y-91800000D02*
X154000000Y-93000000D01*
X152800000Y-85050000D02*
X152800000Y-91800000D01*
X152800000Y-83750000D02*
X164366000Y-83750000D01*
X164366000Y-83750000D02*
X165080000Y-84464000D01*
X165080000Y-84464000D02*
X165080000Y-85714000D01*
X162500000Y-88000000D02*
X156900000Y-88000000D01*
X152800000Y-84400000D02*
X156650000Y-84400000D01*
X156650000Y-84400000D02*
X156900000Y-84650000D01*
X156900000Y-84650000D02*
X156900000Y-88000000D01*
D29*
G36*
X153286000Y-51353115D02*
X153286000Y-52231500D01*
X153450500Y-52396000D01*
X154856000Y-52396000D01*
X154856000Y-52376000D01*
X155064000Y-52376000D01*
X155064000Y-52396000D01*
X155084000Y-52396000D01*
X155084000Y-52604000D01*
X155064000Y-52604000D01*
X155064000Y-54009500D01*
X155228500Y-54174000D01*
X156106884Y-54174000D01*
X156126772Y-54165762D01*
X156628674Y-54501123D01*
X157457566Y-54666000D01*
X157542434Y-54666000D01*
X158371326Y-54501123D01*
X159074027Y-54031593D01*
X159543557Y-53328892D01*
X159708434Y-52500000D01*
X159543557Y-51671108D01*
X159245477Y-51225000D01*
X173775000Y-51225000D01*
X173775000Y-118775000D01*
X163572529Y-118775000D01*
X163572529Y-117550000D01*
X163492341Y-117123836D01*
X163240478Y-116732430D01*
X163022529Y-116583512D01*
X163022529Y-115150000D01*
X162942341Y-114723836D01*
X162690478Y-114332430D01*
X162306179Y-114069850D01*
X161850000Y-113977471D01*
X159750000Y-113977471D01*
X159323836Y-114057659D01*
X159151056Y-114168840D01*
X159006179Y-114069850D01*
X158550000Y-113977471D01*
X158150000Y-113977471D01*
X158020411Y-114001855D01*
X157900000Y-113977471D01*
X157605962Y-113977471D01*
X157372272Y-113627728D01*
X157372269Y-113627726D01*
X149525001Y-105780457D01*
X149525000Y-85650000D01*
X149475000Y-85398634D01*
X149475000Y-85223000D01*
X149756500Y-85223000D01*
X149921000Y-85058500D01*
X149921000Y-82879000D01*
X149901000Y-82879000D01*
X149901000Y-82671000D01*
X149921000Y-82671000D01*
X149921000Y-82651000D01*
X150129000Y-82651000D01*
X150129000Y-82671000D01*
X150149000Y-82671000D01*
X150149000Y-82879000D01*
X150129000Y-82879000D01*
X150129000Y-85058500D01*
X150293500Y-85223000D01*
X151102471Y-85223000D01*
X151102471Y-85275000D01*
X151182659Y-85701164D01*
X151425000Y-86077772D01*
X151425000Y-91800000D01*
X151529666Y-92326190D01*
X151628303Y-92473811D01*
X151827728Y-92772272D01*
X153027728Y-93972272D01*
X153473810Y-94270334D01*
X154000000Y-94375000D01*
X165000000Y-94375000D01*
X165526190Y-94270334D01*
X165972272Y-93972272D01*
X166052272Y-93892272D01*
X166350334Y-93446190D01*
X166455000Y-92920000D01*
X166455000Y-91842426D01*
X166660150Y-91542179D01*
X166752529Y-91086000D01*
X166752529Y-89486000D01*
X166672341Y-89059836D01*
X166420478Y-88668430D01*
X166036179Y-88405850D01*
X165580000Y-88313471D01*
X164424727Y-88313471D01*
X164425274Y-87686529D01*
X165580000Y-87686529D01*
X166006164Y-87606341D01*
X166397570Y-87354478D01*
X166660150Y-86970179D01*
X166752529Y-86514000D01*
X166752529Y-84914000D01*
X166672341Y-84487836D01*
X166420478Y-84096430D01*
X166375815Y-84065913D01*
X166350334Y-83937810D01*
X166052272Y-83491728D01*
X166052269Y-83491726D01*
X165338272Y-82777728D01*
X165178542Y-82671000D01*
X164892190Y-82479666D01*
X164366000Y-82375000D01*
X161721589Y-82375000D01*
X161797529Y-82000000D01*
X161797529Y-81000000D01*
X161717341Y-80573836D01*
X161465478Y-80182430D01*
X161283000Y-80057748D01*
X161283000Y-79768500D01*
X161118500Y-79604000D01*
X160104000Y-79604000D01*
X160104000Y-79624000D01*
X159896000Y-79624000D01*
X159896000Y-79604000D01*
X159876000Y-79604000D01*
X159876000Y-79396000D01*
X159896000Y-79396000D01*
X159896000Y-78506500D01*
X160104000Y-78506500D01*
X160104000Y-79396000D01*
X161118500Y-79396000D01*
X161283000Y-79231500D01*
X161283000Y-78869116D01*
X161182826Y-78627273D01*
X160997727Y-78442175D01*
X160755885Y-78342000D01*
X160268500Y-78342000D01*
X160104000Y-78506500D01*
X159896000Y-78506500D01*
X159731500Y-78342000D01*
X159358129Y-78342000D01*
X159341282Y-78330489D01*
X159270334Y-77973810D01*
X158972272Y-77527728D01*
X158322262Y-76877718D01*
X158100686Y-76729666D01*
X157876180Y-76579656D01*
X157349990Y-76474990D01*
X151879895Y-76474990D01*
X151653659Y-76320410D01*
X151197480Y-76228031D01*
X149998600Y-76228031D01*
X149572436Y-76308219D01*
X149554000Y-76320082D01*
X149099440Y-76228031D01*
X147900560Y-76228031D01*
X147474396Y-76308219D01*
X147082990Y-76560082D01*
X146995047Y-76688791D01*
X146789556Y-76729666D01*
X146468212Y-76944381D01*
X146343474Y-77027728D01*
X144377718Y-78993484D01*
X144079656Y-79439566D01*
X143974990Y-79965756D01*
X143974990Y-83769242D01*
X144079656Y-84295432D01*
X144332497Y-84673836D01*
X144377718Y-84741514D01*
X145008475Y-85372271D01*
X145454557Y-85670333D01*
X145980747Y-85774999D01*
X146294447Y-85774999D01*
X146352273Y-85832825D01*
X146594115Y-85933000D01*
X146775000Y-85933000D01*
X146775001Y-106350001D01*
X146879667Y-106876191D01*
X147177729Y-107322273D01*
X153832928Y-113977471D01*
X153550000Y-113977471D01*
X153123836Y-114057659D01*
X152732430Y-114309522D01*
X152469850Y-114693821D01*
X152377471Y-115150000D01*
X152377471Y-116584016D01*
X152182430Y-116709522D01*
X151919850Y-117093821D01*
X151827471Y-117550000D01*
X151827471Y-118775000D01*
X141225000Y-118775000D01*
X141225000Y-60598805D01*
X144329629Y-60598805D01*
X144654739Y-61385629D01*
X145256205Y-61988146D01*
X146042460Y-62314628D01*
X146893805Y-62315371D01*
X147680629Y-61990261D01*
X148283146Y-61388795D01*
X148609628Y-60602540D01*
X148610371Y-59751195D01*
X148285261Y-58964371D01*
X147683795Y-58361854D01*
X146897540Y-58035372D01*
X146046195Y-58034629D01*
X145259371Y-58359739D01*
X144656854Y-58961205D01*
X144330372Y-59747460D01*
X144329629Y-60598805D01*
X141225000Y-60598805D01*
X141225000Y-52768500D01*
X153286000Y-52768500D01*
X153286000Y-53646885D01*
X153386175Y-53888727D01*
X153571273Y-54073826D01*
X153813116Y-54174000D01*
X154691500Y-54174000D01*
X154856000Y-54009500D01*
X154856000Y-52604000D01*
X153450500Y-52604000D01*
X153286000Y-52768500D01*
X141225000Y-52768500D01*
X141225000Y-51225000D01*
X153339067Y-51225000D01*
X153286000Y-51353115D01*
X153286000Y-51353115D01*
G37*
X153286000Y-51353115D02*
X153286000Y-52231500D01*
X153450500Y-52396000D01*
X154856000Y-52396000D01*
X154856000Y-52376000D01*
X155064000Y-52376000D01*
X155064000Y-52396000D01*
X155084000Y-52396000D01*
X155084000Y-52604000D01*
X155064000Y-52604000D01*
X155064000Y-54009500D01*
X155228500Y-54174000D01*
X156106884Y-54174000D01*
X156126772Y-54165762D01*
X156628674Y-54501123D01*
X157457566Y-54666000D01*
X157542434Y-54666000D01*
X158371326Y-54501123D01*
X159074027Y-54031593D01*
X159543557Y-53328892D01*
X159708434Y-52500000D01*
X159543557Y-51671108D01*
X159245477Y-51225000D01*
X173775000Y-51225000D01*
X173775000Y-118775000D01*
X163572529Y-118775000D01*
X163572529Y-117550000D01*
X163492341Y-117123836D01*
X163240478Y-116732430D01*
X163022529Y-116583512D01*
X163022529Y-115150000D01*
X162942341Y-114723836D01*
X162690478Y-114332430D01*
X162306179Y-114069850D01*
X161850000Y-113977471D01*
X159750000Y-113977471D01*
X159323836Y-114057659D01*
X159151056Y-114168840D01*
X159006179Y-114069850D01*
X158550000Y-113977471D01*
X158150000Y-113977471D01*
X158020411Y-114001855D01*
X157900000Y-113977471D01*
X157605962Y-113977471D01*
X157372272Y-113627728D01*
X157372269Y-113627726D01*
X149525001Y-105780457D01*
X149525000Y-85650000D01*
X149475000Y-85398634D01*
X149475000Y-85223000D01*
X149756500Y-85223000D01*
X149921000Y-85058500D01*
X149921000Y-82879000D01*
X149901000Y-82879000D01*
X149901000Y-82671000D01*
X149921000Y-82671000D01*
X149921000Y-82651000D01*
X150129000Y-82651000D01*
X150129000Y-82671000D01*
X150149000Y-82671000D01*
X150149000Y-82879000D01*
X150129000Y-82879000D01*
X150129000Y-85058500D01*
X150293500Y-85223000D01*
X151102471Y-85223000D01*
X151102471Y-85275000D01*
X151182659Y-85701164D01*
X151425000Y-86077772D01*
X151425000Y-91800000D01*
X151529666Y-92326190D01*
X151628303Y-92473811D01*
X151827728Y-92772272D01*
X153027728Y-93972272D01*
X153473810Y-94270334D01*
X154000000Y-94375000D01*
X165000000Y-94375000D01*
X165526190Y-94270334D01*
X165972272Y-93972272D01*
X166052272Y-93892272D01*
X166350334Y-93446190D01*
X166455000Y-92920000D01*
X166455000Y-91842426D01*
X166660150Y-91542179D01*
X166752529Y-91086000D01*
X166752529Y-89486000D01*
X166672341Y-89059836D01*
X166420478Y-88668430D01*
X166036179Y-88405850D01*
X165580000Y-88313471D01*
X164424727Y-88313471D01*
X164425274Y-87686529D01*
X165580000Y-87686529D01*
X166006164Y-87606341D01*
X166397570Y-87354478D01*
X166660150Y-86970179D01*
X166752529Y-86514000D01*
X166752529Y-84914000D01*
X166672341Y-84487836D01*
X166420478Y-84096430D01*
X166375815Y-84065913D01*
X166350334Y-83937810D01*
X166052272Y-83491728D01*
X166052269Y-83491726D01*
X165338272Y-82777728D01*
X165178542Y-82671000D01*
X164892190Y-82479666D01*
X164366000Y-82375000D01*
X161721589Y-82375000D01*
X161797529Y-82000000D01*
X161797529Y-81000000D01*
X161717341Y-80573836D01*
X161465478Y-80182430D01*
X161283000Y-80057748D01*
X161283000Y-79768500D01*
X161118500Y-79604000D01*
X160104000Y-79604000D01*
X160104000Y-79624000D01*
X159896000Y-79624000D01*
X159896000Y-79604000D01*
X159876000Y-79604000D01*
X159876000Y-79396000D01*
X159896000Y-79396000D01*
X159896000Y-78506500D01*
X160104000Y-78506500D01*
X160104000Y-79396000D01*
X161118500Y-79396000D01*
X161283000Y-79231500D01*
X161283000Y-78869116D01*
X161182826Y-78627273D01*
X160997727Y-78442175D01*
X160755885Y-78342000D01*
X160268500Y-78342000D01*
X160104000Y-78506500D01*
X159896000Y-78506500D01*
X159731500Y-78342000D01*
X159358129Y-78342000D01*
X159341282Y-78330489D01*
X159270334Y-77973810D01*
X158972272Y-77527728D01*
X158322262Y-76877718D01*
X158100686Y-76729666D01*
X157876180Y-76579656D01*
X157349990Y-76474990D01*
X151879895Y-76474990D01*
X151653659Y-76320410D01*
X151197480Y-76228031D01*
X149998600Y-76228031D01*
X149572436Y-76308219D01*
X149554000Y-76320082D01*
X149099440Y-76228031D01*
X147900560Y-76228031D01*
X147474396Y-76308219D01*
X147082990Y-76560082D01*
X146995047Y-76688791D01*
X146789556Y-76729666D01*
X146468212Y-76944381D01*
X146343474Y-77027728D01*
X144377718Y-78993484D01*
X144079656Y-79439566D01*
X143974990Y-79965756D01*
X143974990Y-83769242D01*
X144079656Y-84295432D01*
X144332497Y-84673836D01*
X144377718Y-84741514D01*
X145008475Y-85372271D01*
X145454557Y-85670333D01*
X145980747Y-85774999D01*
X146294447Y-85774999D01*
X146352273Y-85832825D01*
X146594115Y-85933000D01*
X146775000Y-85933000D01*
X146775001Y-106350001D01*
X146879667Y-106876191D01*
X147177729Y-107322273D01*
X153832928Y-113977471D01*
X153550000Y-113977471D01*
X153123836Y-114057659D01*
X152732430Y-114309522D01*
X152469850Y-114693821D01*
X152377471Y-115150000D01*
X152377471Y-116584016D01*
X152182430Y-116709522D01*
X151919850Y-117093821D01*
X151827471Y-117550000D01*
X151827471Y-118775000D01*
X141225000Y-118775000D01*
X141225000Y-60598805D01*
X144329629Y-60598805D01*
X144654739Y-61385629D01*
X145256205Y-61988146D01*
X146042460Y-62314628D01*
X146893805Y-62315371D01*
X147680629Y-61990261D01*
X148283146Y-61388795D01*
X148609628Y-60602540D01*
X148610371Y-59751195D01*
X148285261Y-58964371D01*
X147683795Y-58361854D01*
X146897540Y-58035372D01*
X146046195Y-58034629D01*
X145259371Y-58359739D01*
X144656854Y-58961205D01*
X144330372Y-59747460D01*
X144329629Y-60598805D01*
X141225000Y-60598805D01*
X141225000Y-52768500D01*
X153286000Y-52768500D01*
X153286000Y-53646885D01*
X153386175Y-53888727D01*
X153571273Y-54073826D01*
X153813116Y-54174000D01*
X154691500Y-54174000D01*
X154856000Y-54009500D01*
X154856000Y-52604000D01*
X153450500Y-52604000D01*
X153286000Y-52768500D01*
X141225000Y-52768500D01*
X141225000Y-51225000D01*
X153339067Y-51225000D01*
X153286000Y-51353115D01*
M02*
