G04 #@! TF.FileFunction,Copper,L1,Top,Signal*
%FSLAX46Y46*%
G04 Gerber Fmt 4.6, Leading zero omitted, Abs format (unit mm)*
G04 Created by KiCad (PCBNEW 4.0.2+e4-6225~38~ubuntu16.04.1-stable) date Mon 01 Aug 2016 03:16:58 PM PDT*
%MOMM*%
G01*
G04 APERTURE LIST*
%ADD10C,0.100000*%
%ADD11R,2.032000X1.727200*%
%ADD12O,2.032000X1.727200*%
%ADD13R,0.600000X1.000000*%
%ADD14C,0.600000*%
G04 APERTURE END LIST*
D10*
D11*
X142240000Y-100330000D03*
D12*
X142240000Y-102870000D03*
X142240000Y-105410000D03*
X142240000Y-107950000D03*
X142240000Y-110490000D03*
X142240000Y-113030000D03*
D13*
X149540000Y-105480000D03*
X148590000Y-105480000D03*
X147640000Y-105480000D03*
X147640000Y-107880000D03*
X148590000Y-107880000D03*
X149540000Y-107880000D03*
D14*
X149540000Y-102550000D02*
X147320000Y-100330000D01*
X147320000Y-100330000D02*
X142240000Y-100330000D01*
X149540000Y-105480000D02*
X149540000Y-102550000D01*
X148590000Y-105480000D02*
X148590000Y-104729998D01*
X148590000Y-104729998D02*
X146730002Y-102870000D01*
X146730002Y-102870000D02*
X143856000Y-102870000D01*
X143856000Y-102870000D02*
X142240000Y-102870000D01*
X147640000Y-105480000D02*
X142310000Y-105480000D01*
X142310000Y-105480000D02*
X142240000Y-105410000D01*
X147640000Y-107880000D02*
X142310000Y-107880000D01*
X142310000Y-107880000D02*
X142240000Y-107950000D01*
X148590000Y-107880000D02*
X148590000Y-108630002D01*
X148590000Y-108630002D02*
X146730002Y-110490000D01*
X143856000Y-110490000D02*
X142240000Y-110490000D01*
X146730002Y-110490000D02*
X143856000Y-110490000D01*
X149540000Y-110810000D02*
X147320000Y-113030000D01*
X147320000Y-113030000D02*
X142240000Y-113030000D01*
X149540000Y-107880000D02*
X149540000Y-110810000D01*
M02*
