M48
;DRILL file {KiCad 4.0.2-stable} date 8/15/2016 10:30:01 AM
;FORMAT={2:4/ absolute / inch / suppress trailing zeros}
FMAT,2
INCH,LZ
T1C0.040
%
G90
G05
M72
T1
X051673Y-045276
X052673Y-045276
X053673Y-045276
X054673Y-045276
X055673Y-045276
X056673Y-045276
X057673Y-045276
X058673Y-045276
X059673Y-045276
X060673Y-045276
X061673Y-045276
X062673Y-045276
X063673Y-045276
X064673Y-045276
X065673Y-045276
X066673Y-045276
X067673Y-045276
X068673Y-045276
X069673Y-045276
X070673Y-045276
X071673Y-045276
X072673Y-045276
T0
M30
