G04 #@! TF.FileFunction,Copper,L1,Top,Signal*
%FSLAX46Y46*%
G04 Gerber Fmt 4.6, Leading zero omitted, Abs format (unit mm)*
G04 Created by KiCad (PCBNEW 4.0.2+e4-6225~38~ubuntu16.04.1-stable) date Mon 01 Aug 2016 12:24:11 PM PDT*
%MOMM*%
G01*
G04 APERTURE LIST*
%ADD10C,0.100000*%
%ADD11R,2.032000X1.727200*%
%ADD12O,2.032000X1.727200*%
%ADD13R,1.050000X0.450000*%
%ADD14R,2.940000X3.580000*%
%ADD15C,0.450000*%
G04 APERTURE END LIST*
D10*
D11*
X158750000Y-95250000D03*
D12*
X158750000Y-97790000D03*
X158750000Y-100330000D03*
X158750000Y-102870000D03*
X158750000Y-105410000D03*
X158750000Y-107950000D03*
X158750000Y-110490000D03*
X158750000Y-113030000D03*
D11*
X138430000Y-113030000D03*
D12*
X138430000Y-110490000D03*
X138430000Y-107950000D03*
X138430000Y-105410000D03*
X138430000Y-102870000D03*
X138430000Y-100330000D03*
X138430000Y-97790000D03*
X138430000Y-95250000D03*
D13*
X151365000Y-106415000D03*
D14*
X148590000Y-104140000D03*
D13*
X151365000Y-105115000D03*
X151365000Y-105765000D03*
X151365000Y-104465000D03*
X151365000Y-103815000D03*
X151365000Y-103165000D03*
X151365000Y-102515000D03*
X151365000Y-101865000D03*
X145815000Y-106415000D03*
X145815000Y-105765000D03*
X145815000Y-105115000D03*
X145815000Y-104465000D03*
X145815000Y-103815000D03*
X145815000Y-103165000D03*
X145815000Y-102515000D03*
X145815000Y-101865000D03*
D15*
X151365000Y-101865000D02*
X151665000Y-101865000D01*
X151665000Y-101865000D02*
X158280000Y-95250000D01*
X158280000Y-95250000D02*
X158750000Y-95250000D01*
X158597600Y-95250000D02*
X158750000Y-95250000D01*
X151365000Y-102515000D02*
X152340000Y-102515000D01*
X152340000Y-102515000D02*
X157065000Y-97790000D01*
X157284000Y-97790000D02*
X158750000Y-97790000D01*
X157065000Y-97790000D02*
X157284000Y-97790000D01*
X153375000Y-103165000D02*
X156210000Y-100330000D01*
X156210000Y-100330000D02*
X158750000Y-100330000D01*
X151365000Y-103165000D02*
X153375000Y-103165000D01*
X153995000Y-103815000D02*
X154940000Y-102870000D01*
X154940000Y-102870000D02*
X158750000Y-102870000D01*
X151365000Y-103815000D02*
X153995000Y-103815000D01*
X153995000Y-104465000D02*
X154940000Y-105410000D01*
X154940000Y-105410000D02*
X158750000Y-105410000D01*
X151365000Y-104465000D02*
X153995000Y-104465000D01*
X153375000Y-105115000D02*
X156210000Y-107950000D01*
X156210000Y-107950000D02*
X158750000Y-107950000D01*
X151365000Y-105115000D02*
X153375000Y-105115000D01*
X157065000Y-110490000D02*
X158750000Y-110490000D01*
X151365000Y-105765000D02*
X152340000Y-105765000D01*
X152340000Y-105765000D02*
X157065000Y-110490000D01*
X151365000Y-106415000D02*
X151665000Y-106415000D01*
X151665000Y-106415000D02*
X158280000Y-113030000D01*
X158280000Y-113030000D02*
X158750000Y-113030000D01*
X148579000Y-106415000D02*
X148590000Y-106404000D01*
X148590000Y-106404000D02*
X148590000Y-104140000D01*
X145815000Y-106415000D02*
X148579000Y-106415000D01*
X145815000Y-106415000D02*
X145515000Y-106415000D01*
X138900000Y-113030000D02*
X138430000Y-113030000D01*
X145515000Y-106415000D02*
X138900000Y-113030000D01*
X140115000Y-110490000D02*
X138430000Y-110490000D01*
X145815000Y-105765000D02*
X144840000Y-105765000D01*
X144840000Y-105765000D02*
X140115000Y-110490000D01*
X143805000Y-105115000D02*
X140970000Y-107950000D01*
X140970000Y-107950000D02*
X138430000Y-107950000D01*
X145815000Y-105115000D02*
X143805000Y-105115000D01*
X143185000Y-104465000D02*
X142240000Y-105410000D01*
X142240000Y-105410000D02*
X138430000Y-105410000D01*
X145815000Y-104465000D02*
X143185000Y-104465000D01*
X143185000Y-103815000D02*
X142240000Y-102870000D01*
X142240000Y-102870000D02*
X138430000Y-102870000D01*
X145815000Y-103815000D02*
X143185000Y-103815000D01*
X143805000Y-103165000D02*
X140970000Y-100330000D01*
X140970000Y-100330000D02*
X138430000Y-100330000D01*
X145815000Y-103165000D02*
X143805000Y-103165000D01*
X140115000Y-97790000D02*
X138430000Y-97790000D01*
X145815000Y-102515000D02*
X144840000Y-102515000D01*
X144840000Y-102515000D02*
X140115000Y-97790000D01*
X145515000Y-101865000D02*
X138900000Y-95250000D01*
X145815000Y-101865000D02*
X145515000Y-101865000D01*
X138900000Y-95250000D02*
X138430000Y-95250000D01*
M02*
